<svg width="2400" height="1200" viewBox="0 0 2400 1200" fill="none" xmlns="http://www.w3.org/2000/svg">
<circle cx="50" cy="50" r="5" fill="white"/>
<circle cx="185.294" cy="50" r="5" fill="white"/>
<circle cx="320.588" cy="50" r="10" fill="white"/>
<circle cx="455.882" cy="50" r="5" fill="white"/>
<circle cx="591.177" cy="50" r="5" fill="white"/>
<circle cx="726.471" cy="50" r="5" fill="white"/>
<circle cx="861.765" cy="50" r="5" fill="white"/>
<circle cx="997.059" cy="50" r="5" fill="white"/>
<circle cx="1132.35" cy="50" r="5" fill="white"/>
<circle cx="1267.65" cy="50" r="5" fill="white"/>
<circle cx="1402.94" cy="50" r="5" fill="white"/>
<circle cx="1538.24" cy="50" r="10" fill="white"/>
<circle cx="1673.53" cy="50" r="5" fill="white"/>
<circle cx="1808.82" cy="50" r="5" fill="white"/>
<circle cx="1944.12" cy="50" r="5" fill="white"/>
<circle cx="2079.41" cy="50" r="5" fill="white"/>
<circle cx="2214.71" cy="50" r="5" fill="white"/>
<circle cx="2350" cy="50" r="5" fill="white"/>
<circle cx="50" cy="187.5" r="5" fill="white"/>
<circle cx="185.294" cy="187.5" r="20" fill="white"/>
<circle cx="320.588" cy="187.5" r="30" fill="white"/>
<circle cx="455.882" cy="187.5" r="20" fill="white"/>
<circle cx="591.177" cy="187.5" r="5" fill="white"/>
<circle cx="726.471" cy="187.5" r="10" fill="white"/>
<circle cx="861.765" cy="187.5" r="20" fill="white"/>
<circle cx="997.059" cy="187.5" r="10" fill="white"/>
<circle cx="1132.35" cy="187.5" r="5" fill="white"/>
<circle cx="1267.65" cy="187.5" r="5" fill="white"/>
<circle cx="1402.94" cy="187.5" r="20" fill="white"/>
<circle cx="1538.24" cy="187.5" r="30" fill="white"/>
<circle cx="1673.53" cy="187.5" r="20" fill="white"/>
<circle cx="1808.82" cy="187.5" r="5" fill="white"/>
<circle cx="1944.12" cy="187.5" r="10" fill="white"/>
<circle cx="2079.41" cy="187.5" r="20" fill="white"/>
<circle cx="2214.71" cy="187.5" r="10" fill="white"/>
<circle cx="2350" cy="187.5" r="5" fill="white"/>
<circle cx="50" cy="325" r="10" fill="white"/>
<circle cx="185.294" cy="325" r="30" fill="white"/>
<g clip-path="url(#clip0_144_5518)">
<circle cx="320.588" cy="325" r="50" fill="white"/>
</g>
<circle cx="455.882" cy="325" r="30" fill="white"/>
<circle cx="591.177" cy="325" r="10" fill="white"/>
<circle cx="726.471" cy="325" r="20" fill="white"/>
<circle cx="861.765" cy="325" r="40" fill="white"/>
<circle cx="997.059" cy="325" r="20" fill="white"/>
<circle cx="1132.35" cy="325" r="5" fill="white"/>
<circle cx="1267.65" cy="325" r="10" fill="white"/>
<circle cx="1402.94" cy="325" r="30" fill="white"/>
<g clip-path="url(#clip1_144_5518)">
<circle cx="1538.24" cy="325" r="50" fill="white"/>
</g>
<circle cx="1673.53" cy="325" r="30" fill="white"/>
<circle cx="1808.82" cy="325" r="10" fill="white"/>
<circle cx="1944.12" cy="325" r="20" fill="white"/>
<circle cx="2079.41" cy="325" r="30" fill="white"/>
<circle cx="2214.71" cy="325" r="20" fill="white"/>
<circle cx="2350" cy="325" r="5" fill="white"/>
<circle cx="50" cy="462.5" r="5" fill="white"/>
<circle cx="185.294" cy="462.5" r="20" fill="white"/>
<circle cx="320.588" cy="462.5" r="30" fill="white"/>
<circle cx="455.882" cy="462.5" r="20" fill="white"/>
<circle cx="591.177" cy="462.5" r="5" fill="white"/>
<circle cx="726.471" cy="462.5" r="10" fill="white"/>
<circle cx="861.765" cy="462.5" r="20" fill="white"/>
<circle cx="997.059" cy="462.5" r="10" fill="white"/>
<circle cx="1132.35" cy="462.5" r="5" fill="white"/>
<circle cx="1267.65" cy="462.5" r="5" fill="white"/>
<circle cx="1402.94" cy="462.5" r="20" fill="white"/>
<circle cx="1538.24" cy="462.5" r="30" fill="white"/>
<circle cx="1673.53" cy="462.5" r="20" fill="white"/>
<circle cx="1808.82" cy="462.5" r="5" fill="white"/>
<circle cx="1944.12" cy="462.5" r="10" fill="white"/>
<circle cx="2079.41" cy="462.5" r="20" fill="white"/>
<circle cx="2214.71" cy="462.5" r="10" fill="white"/>
<circle cx="2350" cy="462.5" r="5" fill="white"/>
<circle cx="50" cy="600" r="5" fill="white"/>
<circle cx="185.294" cy="600" r="5" fill="white"/>
<circle cx="320.588" cy="600" r="10" fill="white"/>
<circle cx="455.882" cy="600" r="5" fill="white"/>
<circle cx="591.177" cy="600" r="5" fill="white"/>
<circle cx="726.471" cy="600" r="5" fill="white"/>
<circle cx="861.765" cy="600" r="10" fill="white"/>
<circle cx="997.059" cy="600" r="5" fill="white"/>
<circle cx="1132.35" cy="600" r="5" fill="white"/>
<circle cx="1267.65" cy="600" r="5" fill="white"/>
<circle cx="1402.94" cy="600" r="5" fill="white"/>
<circle cx="1538.24" cy="600" r="10" fill="white"/>
<circle cx="1673.53" cy="600" r="5" fill="white"/>
<circle cx="1808.82" cy="600" r="5" fill="white"/>
<circle cx="1944.12" cy="600" r="5" fill="white"/>
<circle cx="2079.41" cy="600" r="10" fill="white"/>
<circle cx="2214.71" cy="600" r="5" fill="white"/>
<circle cx="2350" cy="600" r="5" fill="white"/>
<circle cx="50" cy="737.5" r="5" fill="white"/>
<circle cx="185.294" cy="737.5" r="10" fill="white"/>
<circle cx="320.588" cy="737.5" r="20" fill="white"/>
<circle cx="455.882" cy="737.5" r="10" fill="white"/>
<circle cx="591.177" cy="737.5" r="5" fill="white"/>
<circle cx="726.471" cy="737.5" r="20" fill="white"/>
<circle cx="861.765" cy="737.5" r="30" fill="white"/>
<circle cx="997.059" cy="737.5" r="20" fill="white"/>
<circle cx="1132.35" cy="737.5" r="5" fill="white"/>
<circle cx="1267.65" cy="737.5" r="5" fill="white"/>
<circle cx="1402.94" cy="737.5" r="20" fill="white"/>
<circle cx="1538.24" cy="737.5" r="20" fill="white"/>
<circle cx="1673.53" cy="737.5" r="20" fill="white"/>
<circle cx="1808.82" cy="737.5" r="5" fill="white"/>
<circle cx="1944.12" cy="737.5" r="20" fill="white"/>
<circle cx="2079.41" cy="737.5" r="30" fill="white"/>
<circle cx="2214.71" cy="737.5" r="20" fill="white"/>
<circle cx="2350" cy="737.5" r="5" fill="white"/>
<circle cx="50" cy="875" r="5" fill="white"/>
<circle cx="185.294" cy="875" r="20" fill="white"/>
<circle cx="320.588" cy="875" r="40" fill="white"/>
<circle cx="455.882" cy="875" r="20" fill="white"/>
<circle cx="591.177" cy="875" r="10" fill="white"/>
<circle cx="726.471" cy="875" r="30" fill="white"/>
<g clip-path="url(#clip2_144_5518)">
<circle cx="861.765" cy="875" r="50" fill="white"/>
</g>
<circle cx="997.059" cy="875" r="30" fill="white"/>
<circle cx="1132.35" cy="875" r="10" fill="white"/>
<circle cx="1267.65" cy="875" r="5" fill="white"/>
<circle cx="1402.94" cy="875" r="20" fill="white"/>
<circle cx="1538.24" cy="875" r="40" fill="white"/>
<circle cx="1673.53" cy="875" r="20" fill="white"/>
<circle cx="1808.82" cy="875" r="10" fill="white"/>
<circle cx="1944.12" cy="875" r="30" fill="white"/>
<g clip-path="url(#clip3_144_5518)">
<circle cx="2079.41" cy="875" r="50" fill="white"/>
</g>
<circle cx="2214.71" cy="875" r="30" fill="white"/>
<circle cx="2350" cy="875" r="10" fill="white"/>
<circle cx="50" cy="1012.5" r="5" fill="white"/>
<circle cx="185.294" cy="1012.5" r="10" fill="white"/>
<circle cx="320.588" cy="1012.5" r="20" fill="white"/>
<circle cx="455.882" cy="1012.5" r="10" fill="white"/>
<circle cx="591.177" cy="1012.5" r="5" fill="white"/>
<circle cx="726.471" cy="1012.5" r="20" fill="white"/>
<circle cx="861.765" cy="1012.5" r="30" fill="white"/>
<circle cx="997.059" cy="1012.5" r="20" fill="white"/>
<circle cx="1132.35" cy="1012.5" r="5" fill="white"/>
<circle cx="1267.65" cy="1012.5" r="5" fill="white"/>
<circle cx="1402.94" cy="1012.5" r="20" fill="white"/>
<circle cx="1538.24" cy="1012.5" r="20" fill="white"/>
<circle cx="1673.53" cy="1012.5" r="20" fill="white"/>
<circle cx="1808.82" cy="1012.5" r="5" fill="white"/>
<circle cx="1944.12" cy="1012.5" r="20" fill="white"/>
<circle cx="2079.41" cy="1012.5" r="30" fill="white"/>
<circle cx="2214.71" cy="1012.5" r="20" fill="white"/>
<circle cx="2350" cy="1012.5" r="5" fill="white"/>
<circle cx="50" cy="1150" r="5" fill="white"/>
<circle cx="185.294" cy="1150" r="5" fill="white"/>
<circle cx="320.588" cy="1150" r="5" fill="white"/>
<circle cx="455.882" cy="1150" r="5" fill="white"/>
<circle cx="591.177" cy="1150" r="5" fill="white"/>
<circle cx="726.471" cy="1150" r="5" fill="white"/>
<circle cx="861.765" cy="1150" r="10" fill="white"/>
<circle cx="997.059" cy="1150" r="5" fill="white"/>
<circle cx="1132.35" cy="1150" r="5" fill="white"/>
<circle cx="1267.65" cy="1150" r="5" fill="white"/>
<circle cx="1402.94" cy="1150" r="5" fill="white"/>
<circle cx="1538.24" cy="1150" r="5" fill="white"/>
<circle cx="1673.53" cy="1150" r="5" fill="white"/>
<circle cx="1808.82" cy="1150" r="5" fill="white"/>
<circle cx="1944.12" cy="1150" r="5" fill="white"/>
<circle cx="2079.41" cy="1150" r="10" fill="white"/>
<circle cx="2214.71" cy="1150" r="5" fill="white"/>
<circle cx="2350" cy="1150" r="5" fill="white"/>
<defs>
<clipPath id="clip0_144_5518">
<rect width="100" height="100" fill="white" transform="translate(270.588 275)"/>
</clipPath>
<clipPath id="clip1_144_5518">
<rect width="100" height="100" fill="white" transform="translate(1488.24 275)"/>
</clipPath>
<clipPath id="clip2_144_5518">
<rect width="100" height="100" fill="white" transform="translate(811.765 825)"/>
</clipPath>
<clipPath id="clip3_144_5518">
<rect width="100" height="100" fill="white" transform="translate(2029.41 825)"/>
</clipPath>
</defs>
</svg>
