<svg width="2400" height="1200" viewBox="0 0 2400 1200" fill="none" xmlns="http://www.w3.org/2000/svg">
<circle cx="50" cy="50" r="20" fill="white"/>
<circle cx="259.091" cy="50" r="30" fill="white"/>
<circle cx="468.182" cy="50" r="20" fill="white"/>
<circle cx="677.273" cy="50" r="5" fill="white"/>
<circle cx="886.364" cy="50" r="10" fill="white"/>
<circle cx="1095.45" cy="50" r="5" fill="white"/>
<circle cx="1304.55" cy="50" r="20" fill="white"/>
<circle cx="1513.64" cy="50" r="30" fill="white"/>
<circle cx="1722.73" cy="50" r="20" fill="white"/>
<circle cx="1931.82" cy="50" r="5" fill="white"/>
<circle cx="2140.91" cy="50" r="10" fill="white"/>
<circle cx="2350" cy="50" r="5" fill="white"/>
<circle cx="50" cy="270" r="30" fill="white"/>
<g clip-path="url(#clip0_144_6109)">
<circle cx="259.091" cy="270" r="50" fill="white"/>
</g>
<circle cx="468.182" cy="270" r="30" fill="white"/>
<circle cx="677.273" cy="270" r="10" fill="white"/>
<circle cx="886.364" cy="270" r="40" fill="white"/>
<circle cx="1095.45" cy="270" r="10" fill="white"/>
<circle cx="1304.55" cy="270" r="30" fill="white"/>
<g clip-path="url(#clip1_144_6109)">
<circle cx="1513.64" cy="270" r="50" fill="white"/>
</g>
<circle cx="1722.73" cy="270" r="30" fill="white"/>
<circle cx="1931.82" cy="270" r="10" fill="white"/>
<circle cx="2140.91" cy="270" r="40" fill="white"/>
<circle cx="2350" cy="270" r="10" fill="white"/>
<circle cx="50" cy="490" r="20" fill="white"/>
<circle cx="259.091" cy="490" r="30" fill="white"/>
<circle cx="468.182" cy="490" r="20" fill="white"/>
<circle cx="677.273" cy="490" r="5" fill="white"/>
<circle cx="886.364" cy="490" r="10" fill="white"/>
<circle cx="1095.45" cy="490" r="5" fill="white"/>
<circle cx="1304.55" cy="490" r="20" fill="white"/>
<circle cx="1513.64" cy="490" r="30" fill="white"/>
<circle cx="1722.73" cy="490" r="20" fill="white"/>
<circle cx="1931.82" cy="490" r="5" fill="white"/>
<circle cx="2140.91" cy="490" r="10" fill="white"/>
<circle cx="2350" cy="490" r="5" fill="white"/>
<circle cx="50" cy="710" r="5" fill="white"/>
<circle cx="259.091" cy="710" r="10" fill="white"/>
<circle cx="468.182" cy="710" r="5" fill="white"/>
<circle cx="677.273" cy="710" r="20" fill="white"/>
<circle cx="886.364" cy="710" r="30" fill="white"/>
<circle cx="1095.45" cy="710" r="20" fill="white"/>
<circle cx="1304.55" cy="710" r="5" fill="white"/>
<circle cx="1513.64" cy="710" r="10" fill="white"/>
<circle cx="1722.73" cy="710" r="5" fill="white"/>
<circle cx="1931.82" cy="710" r="20" fill="white"/>
<circle cx="2140.91" cy="710" r="30" fill="white"/>
<circle cx="2350" cy="710" r="20" fill="white"/>
<circle cx="50" cy="930" r="10" fill="white"/>
<circle cx="259.091" cy="930" r="40" fill="white"/>
<circle cx="468.182" cy="930" r="10" fill="white"/>
<circle cx="677.273" cy="930" r="30" fill="white"/>
<g clip-path="url(#clip2_144_6109)">
<circle cx="886.364" cy="930" r="50" fill="white"/>
</g>
<circle cx="1095.45" cy="930" r="30" fill="white"/>
<circle cx="1304.55" cy="930" r="10" fill="white"/>
<circle cx="1513.64" cy="930" r="40" fill="white"/>
<circle cx="1722.73" cy="930" r="10" fill="white"/>
<circle cx="1931.82" cy="930" r="30" fill="white"/>
<g clip-path="url(#clip3_144_6109)">
<circle cx="2140.91" cy="930" r="50" fill="white"/>
</g>
<circle cx="2350" cy="930" r="30" fill="white"/>
<circle cx="50" cy="1150" r="5" fill="white"/>
<circle cx="259.091" cy="1150" r="10" fill="white"/>
<circle cx="468.182" cy="1150" r="5" fill="white"/>
<circle cx="677.273" cy="1150" r="20" fill="white"/>
<circle cx="886.364" cy="1150" r="30" fill="white"/>
<circle cx="1095.45" cy="1150" r="20" fill="white"/>
<circle cx="1304.55" cy="1150" r="5" fill="white"/>
<circle cx="1513.64" cy="1150" r="10" fill="white"/>
<circle cx="1722.73" cy="1150" r="5" fill="white"/>
<circle cx="1931.82" cy="1150" r="20" fill="white"/>
<circle cx="2140.91" cy="1150" r="30" fill="white"/>
<circle cx="2350" cy="1150" r="20" fill="white"/>
<defs>
<clipPath id="clip0_144_6109">
<rect width="100" height="100" fill="white" transform="translate(209.091 220)"/>
</clipPath>
<clipPath id="clip1_144_6109">
<rect width="100" height="100" fill="white" transform="translate(1463.64 220)"/>
</clipPath>
<clipPath id="clip2_144_6109">
<rect width="100" height="100" fill="white" transform="translate(836.364 880)"/>
</clipPath>
<clipPath id="clip3_144_6109">
<rect width="100" height="100" fill="white" transform="translate(2090.91 880)"/>
</clipPath>
</defs>
</svg>
