<svg width="2400" height="1200" viewBox="0 0 2400 1200" fill="none" xmlns="http://www.w3.org/2000/svg">
<circle cx="50" cy="50" r="5" fill="white"/>
<circle cx="150" cy="50" r="10" fill="white"/>
<circle cx="250" cy="50" r="20" fill="white"/>
<circle cx="350" cy="50" r="30" fill="white"/>
<circle cx="450" cy="50" r="40" fill="white"/>
<g clip-path="url(#clip0_144_8435)">
<circle cx="550" cy="50" r="50" fill="white"/>
</g>
<g clip-path="url(#clip1_144_8435)">
<circle cx="650" cy="50" r="50" fill="white"/>
</g>
<circle cx="750" cy="50" r="40" fill="white"/>
<circle cx="850" cy="50" r="30" fill="white"/>
<circle cx="950" cy="50" r="20" fill="white"/>
<circle cx="1050" cy="50" r="10" fill="white"/>
<circle cx="1150" cy="50" r="5" fill="white"/>
<circle cx="1250" cy="50" r="5" fill="white"/>
<circle cx="1350" cy="50" r="10" fill="white"/>
<circle cx="1450" cy="50" r="20" fill="white"/>
<circle cx="1550" cy="50" r="30" fill="white"/>
<circle cx="1650" cy="50" r="40" fill="white"/>
<g clip-path="url(#clip2_144_8435)">
<circle cx="1750" cy="50" r="50" fill="white"/>
</g>
<g clip-path="url(#clip3_144_8435)">
<circle cx="1850" cy="50" r="50" fill="white"/>
</g>
<circle cx="1950" cy="50" r="40" fill="white"/>
<circle cx="2050" cy="50" r="30" fill="white"/>
<circle cx="2150" cy="50" r="20" fill="white"/>
<circle cx="2250" cy="50" r="10" fill="white"/>
<circle cx="2350" cy="50" r="5" fill="white"/>
<circle cx="50" cy="450" r="5" fill="white"/>
<circle cx="150" cy="450" r="10" fill="white"/>
<circle cx="250" cy="450" r="20" fill="white"/>
<circle cx="350" cy="450" r="30" fill="white"/>
<circle cx="450" cy="450" r="40" fill="white"/>
<g clip-path="url(#clip4_144_8435)">
<circle cx="550" cy="450" r="50" fill="white"/>
</g>
<g clip-path="url(#clip5_144_8435)">
<circle cx="650" cy="450" r="50" fill="white"/>
</g>
<circle cx="750" cy="450" r="40" fill="white"/>
<circle cx="850" cy="450" r="30" fill="white"/>
<circle cx="950" cy="450" r="20" fill="white"/>
<circle cx="1050" cy="450" r="10" fill="white"/>
<circle cx="1150" cy="450" r="5" fill="white"/>
<circle cx="1250" cy="450" r="5" fill="white"/>
<circle cx="1350" cy="450" r="10" fill="white"/>
<circle cx="1450" cy="450" r="20" fill="white"/>
<circle cx="1550" cy="450" r="30" fill="white"/>
<circle cx="1650" cy="450" r="40" fill="white"/>
<g clip-path="url(#clip6_144_8435)">
<circle cx="1750" cy="450" r="50" fill="white"/>
</g>
<g clip-path="url(#clip7_144_8435)">
<circle cx="1850" cy="450" r="50" fill="white"/>
</g>
<circle cx="1950" cy="450" r="40" fill="white"/>
<circle cx="2050" cy="450" r="30" fill="white"/>
<circle cx="2150" cy="450" r="20" fill="white"/>
<circle cx="2250" cy="450" r="10" fill="white"/>
<circle cx="2350" cy="450" r="5" fill="white"/>
<circle cx="50" cy="850" r="5" fill="white"/>
<circle cx="150" cy="850" r="10" fill="white"/>
<circle cx="250" cy="850" r="20" fill="white"/>
<circle cx="350" cy="850" r="30" fill="white"/>
<circle cx="450" cy="850" r="40" fill="white"/>
<g clip-path="url(#clip8_144_8435)">
<circle cx="550" cy="850" r="50" fill="white"/>
</g>
<g clip-path="url(#clip9_144_8435)">
<circle cx="650" cy="850" r="50" fill="white"/>
</g>
<circle cx="750" cy="850" r="40" fill="white"/>
<circle cx="850" cy="850" r="30" fill="white"/>
<circle cx="950" cy="850" r="20" fill="white"/>
<circle cx="1050" cy="850" r="10" fill="white"/>
<circle cx="1150" cy="850" r="5" fill="white"/>
<circle cx="1250" cy="850" r="5" fill="white"/>
<circle cx="1350" cy="850" r="10" fill="white"/>
<circle cx="1450" cy="850" r="20" fill="white"/>
<circle cx="1550" cy="850" r="30" fill="white"/>
<circle cx="1650" cy="850" r="40" fill="white"/>
<g clip-path="url(#clip10_144_8435)">
<circle cx="1750" cy="850" r="50" fill="white"/>
</g>
<g clip-path="url(#clip11_144_8435)">
<circle cx="1850" cy="850" r="50" fill="white"/>
</g>
<circle cx="1950" cy="850" r="40" fill="white"/>
<circle cx="2050" cy="850" r="30" fill="white"/>
<circle cx="2150" cy="850" r="20" fill="white"/>
<circle cx="2250" cy="850" r="10" fill="white"/>
<circle cx="2350" cy="850" r="5" fill="white"/>
<circle cx="50" cy="250" r="5" fill="white"/>
<circle cx="150" cy="250" r="5" fill="white"/>
<circle cx="250" cy="250" r="5" fill="white"/>
<circle cx="350" cy="250" r="5" fill="white"/>
<circle cx="450" cy="250" r="5" fill="white"/>
<circle cx="550" cy="250" r="5" fill="white"/>
<circle cx="650" cy="250" r="5" fill="white"/>
<circle cx="750" cy="250" r="5" fill="white"/>
<circle cx="850" cy="250" r="5" fill="white"/>
<circle cx="950" cy="250" r="5" fill="white"/>
<circle cx="1050" cy="250" r="5" fill="white"/>
<circle cx="1150" cy="250" r="5" fill="white"/>
<circle cx="1250" cy="250" r="5" fill="white"/>
<circle cx="1350" cy="250" r="5" fill="white"/>
<circle cx="1450" cy="250" r="5" fill="white"/>
<circle cx="1550" cy="250" r="5" fill="white"/>
<circle cx="1650" cy="250" r="5" fill="white"/>
<circle cx="1750" cy="250" r="5" fill="white"/>
<circle cx="1850" cy="250" r="5" fill="white"/>
<circle cx="1950" cy="250" r="5" fill="white"/>
<circle cx="2050" cy="250" r="5" fill="white"/>
<circle cx="2150" cy="250" r="5" fill="white"/>
<circle cx="2250" cy="250" r="5" fill="white"/>
<circle cx="2350" cy="250" r="5" fill="white"/>
<circle cx="50" cy="650" r="5" fill="white"/>
<circle cx="150" cy="650" r="5" fill="white"/>
<circle cx="250" cy="650" r="5" fill="white"/>
<circle cx="350" cy="650" r="5" fill="white"/>
<circle cx="450" cy="650" r="5" fill="white"/>
<circle cx="550" cy="650" r="5" fill="white"/>
<circle cx="650" cy="650" r="5" fill="white"/>
<circle cx="750" cy="650" r="5" fill="white"/>
<circle cx="850" cy="650" r="5" fill="white"/>
<circle cx="950" cy="650" r="5" fill="white"/>
<circle cx="1050" cy="650" r="5" fill="white"/>
<circle cx="1150" cy="650" r="5" fill="white"/>
<circle cx="1250" cy="650" r="5" fill="white"/>
<circle cx="1350" cy="650" r="5" fill="white"/>
<circle cx="1450" cy="650" r="5" fill="white"/>
<circle cx="1550" cy="650" r="5" fill="white"/>
<circle cx="1650" cy="650" r="5" fill="white"/>
<circle cx="1750" cy="650" r="5" fill="white"/>
<circle cx="1850" cy="650" r="5" fill="white"/>
<circle cx="1950" cy="650" r="5" fill="white"/>
<circle cx="2050" cy="650" r="5" fill="white"/>
<circle cx="2150" cy="650" r="5" fill="white"/>
<circle cx="2250" cy="650" r="5" fill="white"/>
<circle cx="2350" cy="650" r="5" fill="white"/>
<circle cx="50" cy="1050" r="5" fill="white"/>
<circle cx="150" cy="1050" r="5" fill="white"/>
<circle cx="250" cy="1050" r="5" fill="white"/>
<circle cx="350" cy="1050" r="5" fill="white"/>
<circle cx="450" cy="1050" r="5" fill="white"/>
<circle cx="550" cy="1050" r="5" fill="white"/>
<circle cx="650" cy="1050" r="5" fill="white"/>
<circle cx="750" cy="1050" r="5" fill="white"/>
<circle cx="850" cy="1050" r="5" fill="white"/>
<circle cx="950" cy="1050" r="5" fill="white"/>
<circle cx="1050" cy="1050" r="5" fill="white"/>
<circle cx="1150" cy="1050" r="5" fill="white"/>
<circle cx="1250" cy="1050" r="5" fill="white"/>
<circle cx="1350" cy="1050" r="5" fill="white"/>
<circle cx="1450" cy="1050" r="5" fill="white"/>
<circle cx="1550" cy="1050" r="5" fill="white"/>
<circle cx="1650" cy="1050" r="5" fill="white"/>
<circle cx="1750" cy="1050" r="5" fill="white"/>
<circle cx="1850" cy="1050" r="5" fill="white"/>
<circle cx="1950" cy="1050" r="5" fill="white"/>
<circle cx="2050" cy="1050" r="5" fill="white"/>
<circle cx="2150" cy="1050" r="5" fill="white"/>
<circle cx="2250" cy="1050" r="5" fill="white"/>
<circle cx="2350" cy="1050" r="5" fill="white"/>
<g clip-path="url(#clip12_144_8435)">
<circle cx="50" cy="150" r="50" fill="white"/>
</g>
<circle cx="150" cy="150" r="40" fill="white"/>
<circle cx="250" cy="150" r="30" fill="white"/>
<circle cx="350" cy="150" r="20" fill="white"/>
<circle cx="450" cy="150" r="10" fill="white"/>
<circle cx="550" cy="150" r="5" fill="white"/>
<circle cx="650" cy="150" r="5" fill="white"/>
<circle cx="750" cy="150" r="10" fill="white"/>
<circle cx="850" cy="150" r="20" fill="white"/>
<circle cx="950" cy="150" r="30" fill="white"/>
<circle cx="1050" cy="150" r="40" fill="white"/>
<g clip-path="url(#clip13_144_8435)">
<circle cx="1150" cy="150" r="50" fill="white"/>
</g>
<g clip-path="url(#clip14_144_8435)">
<circle cx="1250" cy="150" r="50" fill="white"/>
</g>
<circle cx="1350" cy="150" r="40" fill="white"/>
<circle cx="1450" cy="150" r="30" fill="white"/>
<circle cx="1550" cy="150" r="20" fill="white"/>
<circle cx="1650" cy="150" r="10" fill="white"/>
<circle cx="1750" cy="150" r="5" fill="white"/>
<circle cx="1850" cy="150" r="5" fill="white"/>
<circle cx="1950" cy="150" r="10" fill="white"/>
<circle cx="2050" cy="150" r="20" fill="white"/>
<circle cx="2150" cy="150" r="30" fill="white"/>
<circle cx="2250" cy="150" r="40" fill="white"/>
<g clip-path="url(#clip15_144_8435)">
<circle cx="2350" cy="150" r="50" fill="white"/>
</g>
<g clip-path="url(#clip16_144_8435)">
<circle cx="50" cy="550" r="50" fill="white"/>
</g>
<circle cx="150" cy="550" r="40" fill="white"/>
<circle cx="250" cy="550" r="30" fill="white"/>
<circle cx="350" cy="550" r="20" fill="white"/>
<circle cx="450" cy="550" r="10" fill="white"/>
<circle cx="550" cy="550" r="5" fill="white"/>
<circle cx="650" cy="550" r="5" fill="white"/>
<circle cx="750" cy="550" r="10" fill="white"/>
<circle cx="850" cy="550" r="20" fill="white"/>
<circle cx="950" cy="550" r="30" fill="white"/>
<circle cx="1050" cy="550" r="40" fill="white"/>
<g clip-path="url(#clip17_144_8435)">
<circle cx="1150" cy="550" r="50" fill="white"/>
</g>
<g clip-path="url(#clip18_144_8435)">
<circle cx="1250" cy="550" r="50" fill="white"/>
</g>
<circle cx="1350" cy="550" r="40" fill="white"/>
<circle cx="1450" cy="550" r="30" fill="white"/>
<circle cx="1550" cy="550" r="20" fill="white"/>
<circle cx="1650" cy="550" r="10" fill="white"/>
<circle cx="1750" cy="550" r="5" fill="white"/>
<circle cx="1850" cy="550" r="5" fill="white"/>
<circle cx="1950" cy="550" r="10" fill="white"/>
<circle cx="2050" cy="550" r="20" fill="white"/>
<circle cx="2150" cy="550" r="30" fill="white"/>
<circle cx="2250" cy="550" r="40" fill="white"/>
<g clip-path="url(#clip19_144_8435)">
<circle cx="2350" cy="550" r="50" fill="white"/>
</g>
<g clip-path="url(#clip20_144_8435)">
<circle cx="50" cy="950" r="50" fill="white"/>
</g>
<circle cx="150" cy="950" r="40" fill="white"/>
<circle cx="250" cy="950" r="30" fill="white"/>
<circle cx="350" cy="950" r="20" fill="white"/>
<circle cx="450" cy="950" r="10" fill="white"/>
<circle cx="550" cy="950" r="5" fill="white"/>
<circle cx="650" cy="950" r="5" fill="white"/>
<circle cx="750" cy="950" r="10" fill="white"/>
<circle cx="850" cy="950" r="20" fill="white"/>
<circle cx="950" cy="950" r="30" fill="white"/>
<circle cx="1050" cy="950" r="40" fill="white"/>
<g clip-path="url(#clip21_144_8435)">
<circle cx="1150" cy="950" r="50" fill="white"/>
</g>
<g clip-path="url(#clip22_144_8435)">
<circle cx="1250" cy="950" r="50" fill="white"/>
</g>
<circle cx="1350" cy="950" r="40" fill="white"/>
<circle cx="1450" cy="950" r="30" fill="white"/>
<circle cx="1550" cy="950" r="20" fill="white"/>
<circle cx="1650" cy="950" r="10" fill="white"/>
<circle cx="1750" cy="950" r="5" fill="white"/>
<circle cx="1850" cy="950" r="5" fill="white"/>
<circle cx="1950" cy="950" r="10" fill="white"/>
<circle cx="2050" cy="950" r="20" fill="white"/>
<circle cx="2150" cy="950" r="30" fill="white"/>
<circle cx="2250" cy="950" r="40" fill="white"/>
<g clip-path="url(#clip23_144_8435)">
<circle cx="2350" cy="950" r="50" fill="white"/>
</g>
<circle cx="50" cy="350" r="5" fill="white"/>
<circle cx="150" cy="350" r="5" fill="white"/>
<circle cx="250" cy="350" r="5" fill="white"/>
<circle cx="350" cy="350" r="5" fill="white"/>
<circle cx="450" cy="350" r="5" fill="white"/>
<circle cx="550" cy="350" r="5" fill="white"/>
<circle cx="650" cy="350" r="5" fill="white"/>
<circle cx="750" cy="350" r="5" fill="white"/>
<circle cx="850" cy="350" r="5" fill="white"/>
<circle cx="950" cy="350" r="5" fill="white"/>
<circle cx="1050" cy="350" r="5" fill="white"/>
<circle cx="1150" cy="350" r="5" fill="white"/>
<circle cx="1250" cy="350" r="5" fill="white"/>
<circle cx="1350" cy="350" r="5" fill="white"/>
<circle cx="1450" cy="350" r="5" fill="white"/>
<circle cx="1550" cy="350" r="5" fill="white"/>
<circle cx="1650" cy="350" r="5" fill="white"/>
<circle cx="1750" cy="350" r="5" fill="white"/>
<circle cx="1850" cy="350" r="5" fill="white"/>
<circle cx="1950" cy="350" r="5" fill="white"/>
<circle cx="2050" cy="350" r="5" fill="white"/>
<circle cx="2150" cy="350" r="5" fill="white"/>
<circle cx="2250" cy="350" r="5" fill="white"/>
<circle cx="2350" cy="350" r="5" fill="white"/>
<circle cx="50" cy="750" r="5" fill="white"/>
<circle cx="150" cy="750" r="5" fill="white"/>
<circle cx="250" cy="750" r="5" fill="white"/>
<circle cx="350" cy="750" r="5" fill="white"/>
<circle cx="450" cy="750" r="5" fill="white"/>
<circle cx="550" cy="750" r="5" fill="white"/>
<circle cx="650" cy="750" r="5" fill="white"/>
<circle cx="750" cy="750" r="5" fill="white"/>
<circle cx="850" cy="750" r="5" fill="white"/>
<circle cx="950" cy="750" r="5" fill="white"/>
<circle cx="1050" cy="750" r="5" fill="white"/>
<circle cx="1150" cy="750" r="5" fill="white"/>
<circle cx="1250" cy="750" r="5" fill="white"/>
<circle cx="1350" cy="750" r="5" fill="white"/>
<circle cx="1450" cy="750" r="5" fill="white"/>
<circle cx="1550" cy="750" r="5" fill="white"/>
<circle cx="1650" cy="750" r="5" fill="white"/>
<circle cx="1750" cy="750" r="5" fill="white"/>
<circle cx="1850" cy="750" r="5" fill="white"/>
<circle cx="1950" cy="750" r="5" fill="white"/>
<circle cx="2050" cy="750" r="5" fill="white"/>
<circle cx="2150" cy="750" r="5" fill="white"/>
<circle cx="2250" cy="750" r="5" fill="white"/>
<circle cx="2350" cy="750" r="5" fill="white"/>
<circle cx="50" cy="1150" r="5" fill="white"/>
<circle cx="150" cy="1150" r="5" fill="white"/>
<circle cx="250" cy="1150" r="5" fill="white"/>
<circle cx="350" cy="1150" r="5" fill="white"/>
<circle cx="450" cy="1150" r="5" fill="white"/>
<circle cx="550" cy="1150" r="5" fill="white"/>
<circle cx="650" cy="1150" r="5" fill="white"/>
<circle cx="750" cy="1150" r="5" fill="white"/>
<circle cx="850" cy="1150" r="5" fill="white"/>
<circle cx="950" cy="1150" r="5" fill="white"/>
<circle cx="1050" cy="1150" r="5" fill="white"/>
<circle cx="1150" cy="1150" r="5" fill="white"/>
<circle cx="1250" cy="1150" r="5" fill="white"/>
<circle cx="1350" cy="1150" r="5" fill="white"/>
<circle cx="1450" cy="1150" r="5" fill="white"/>
<circle cx="1550" cy="1150" r="5" fill="white"/>
<circle cx="1650" cy="1150" r="5" fill="white"/>
<circle cx="1750" cy="1150" r="5" fill="white"/>
<circle cx="1850" cy="1150" r="5" fill="white"/>
<circle cx="1950" cy="1150" r="5" fill="white"/>
<circle cx="2050" cy="1150" r="5" fill="white"/>
<circle cx="2150" cy="1150" r="5" fill="white"/>
<circle cx="2250" cy="1150" r="5" fill="white"/>
<circle cx="2350" cy="1150" r="5" fill="white"/>
<defs>
<clipPath id="clip0_144_8435">
<rect width="100" height="100" fill="white" transform="translate(500)"/>
</clipPath>
<clipPath id="clip1_144_8435">
<rect width="100" height="100" fill="white" transform="translate(600)"/>
</clipPath>
<clipPath id="clip2_144_8435">
<rect width="100" height="100" fill="white" transform="translate(1700)"/>
</clipPath>
<clipPath id="clip3_144_8435">
<rect width="100" height="100" fill="white" transform="translate(1800)"/>
</clipPath>
<clipPath id="clip4_144_8435">
<rect width="100" height="100" fill="white" transform="translate(500 400)"/>
</clipPath>
<clipPath id="clip5_144_8435">
<rect width="100" height="100" fill="white" transform="translate(600 400)"/>
</clipPath>
<clipPath id="clip6_144_8435">
<rect width="100" height="100" fill="white" transform="translate(1700 400)"/>
</clipPath>
<clipPath id="clip7_144_8435">
<rect width="100" height="100" fill="white" transform="translate(1800 400)"/>
</clipPath>
<clipPath id="clip8_144_8435">
<rect width="100" height="100" fill="white" transform="translate(500 800)"/>
</clipPath>
<clipPath id="clip9_144_8435">
<rect width="100" height="100" fill="white" transform="translate(600 800)"/>
</clipPath>
<clipPath id="clip10_144_8435">
<rect width="100" height="100" fill="white" transform="translate(1700 800)"/>
</clipPath>
<clipPath id="clip11_144_8435">
<rect width="100" height="100" fill="white" transform="translate(1800 800)"/>
</clipPath>
<clipPath id="clip12_144_8435">
<rect width="100" height="100" fill="white" transform="translate(0 100)"/>
</clipPath>
<clipPath id="clip13_144_8435">
<rect width="100" height="100" fill="white" transform="translate(1100 100)"/>
</clipPath>
<clipPath id="clip14_144_8435">
<rect width="100" height="100" fill="white" transform="translate(1200 100)"/>
</clipPath>
<clipPath id="clip15_144_8435">
<rect width="100" height="100" fill="white" transform="translate(2300 100)"/>
</clipPath>
<clipPath id="clip16_144_8435">
<rect width="100" height="100" fill="white" transform="translate(0 500)"/>
</clipPath>
<clipPath id="clip17_144_8435">
<rect width="100" height="100" fill="white" transform="translate(1100 500)"/>
</clipPath>
<clipPath id="clip18_144_8435">
<rect width="100" height="100" fill="white" transform="translate(1200 500)"/>
</clipPath>
<clipPath id="clip19_144_8435">
<rect width="100" height="100" fill="white" transform="translate(2300 500)"/>
</clipPath>
<clipPath id="clip20_144_8435">
<rect width="100" height="100" fill="white" transform="translate(0 900)"/>
</clipPath>
<clipPath id="clip21_144_8435">
<rect width="100" height="100" fill="white" transform="translate(1100 900)"/>
</clipPath>
<clipPath id="clip22_144_8435">
<rect width="100" height="100" fill="white" transform="translate(1200 900)"/>
</clipPath>
<clipPath id="clip23_144_8435">
<rect width="100" height="100" fill="white" transform="translate(2300 900)"/>
</clipPath>
</defs>
</svg>
