<svg width="2400" height="1200" viewBox="0 0 2400 1200" fill="none" xmlns="http://www.w3.org/2000/svg">
<circle cx="50" cy="50" r="5" fill="white"/>
<circle cx="259.091" cy="50" r="20" fill="white"/>
<g clip-path="url(#clip0_144_8910)">
<circle cx="468.182" cy="50" r="50" fill="white"/>
</g>
<g clip-path="url(#clip1_144_8910)">
<circle cx="677.272" cy="50" r="50" fill="white"/>
</g>
<circle cx="886.364" cy="50" r="20" fill="white"/>
<circle cx="1095.45" cy="50" r="5" fill="white"/>
<circle cx="1304.55" cy="50" r="5" fill="white"/>
<circle cx="1513.64" cy="50" r="20" fill="white"/>
<g clip-path="url(#clip2_144_8910)">
<circle cx="1722.73" cy="50" r="50" fill="white"/>
</g>
<g clip-path="url(#clip3_144_8910)">
<circle cx="1931.82" cy="50" r="50" fill="white"/>
</g>
<circle cx="2140.91" cy="50" r="20" fill="white"/>
<circle cx="2350" cy="50" r="5" fill="white"/>
<g clip-path="url(#clip4_144_8910)">
<circle cx="50" cy="270" r="50" fill="white"/>
</g>
<circle cx="259.091" cy="270" r="20" fill="white"/>
<circle cx="468.182" cy="270" r="5" fill="white"/>
<circle cx="677.272" cy="270" r="5" fill="white"/>
<circle cx="886.364" cy="270" r="20" fill="white"/>
<g clip-path="url(#clip5_144_8910)">
<circle cx="1095.45" cy="270" r="50" fill="white"/>
</g>
<g clip-path="url(#clip6_144_8910)">
<circle cx="1304.55" cy="270" r="50" fill="white"/>
</g>
<circle cx="1513.64" cy="270" r="20" fill="white"/>
<circle cx="1722.73" cy="270" r="5" fill="white"/>
<circle cx="1931.82" cy="270" r="5" fill="white"/>
<circle cx="2140.91" cy="270" r="20" fill="white"/>
<g clip-path="url(#clip7_144_8910)">
<circle cx="2350" cy="270" r="50" fill="white"/>
</g>
<circle cx="50" cy="490" r="5" fill="white"/>
<circle cx="259.091" cy="490" r="5" fill="white"/>
<circle cx="468.182" cy="490" r="5" fill="white"/>
<circle cx="677.272" cy="490" r="5" fill="white"/>
<circle cx="886.364" cy="490" r="5" fill="white"/>
<circle cx="1095.45" cy="490" r="5" fill="white"/>
<circle cx="1304.55" cy="490" r="5" fill="white"/>
<circle cx="1513.64" cy="490" r="5" fill="white"/>
<circle cx="1722.73" cy="490" r="5" fill="white"/>
<circle cx="1931.82" cy="490" r="5" fill="white"/>
<circle cx="2140.91" cy="490" r="5" fill="white"/>
<circle cx="2350" cy="490" r="5" fill="white"/>
<circle cx="50" cy="710" r="5" fill="white"/>
<circle cx="259.091" cy="710" r="20" fill="white"/>
<g clip-path="url(#clip8_144_8910)">
<circle cx="468.182" cy="710" r="50" fill="white"/>
</g>
<g clip-path="url(#clip9_144_8910)">
<circle cx="677.272" cy="710" r="50" fill="white"/>
</g>
<circle cx="886.364" cy="710" r="20" fill="white"/>
<circle cx="1095.45" cy="710" r="5" fill="white"/>
<circle cx="1304.55" cy="710" r="5" fill="white"/>
<circle cx="1513.64" cy="710" r="20" fill="white"/>
<g clip-path="url(#clip10_144_8910)">
<circle cx="1722.73" cy="710" r="50" fill="white"/>
</g>
<g clip-path="url(#clip11_144_8910)">
<circle cx="1931.82" cy="710" r="50" fill="white"/>
</g>
<circle cx="2140.91" cy="710" r="20" fill="white"/>
<circle cx="2350" cy="710" r="5" fill="white"/>
<g clip-path="url(#clip12_144_8910)">
<circle cx="50" cy="930" r="50" fill="white"/>
</g>
<circle cx="259.091" cy="930" r="20" fill="white"/>
<circle cx="468.182" cy="930" r="5" fill="white"/>
<circle cx="677.272" cy="930" r="5" fill="white"/>
<circle cx="886.364" cy="930" r="20" fill="white"/>
<g clip-path="url(#clip13_144_8910)">
<circle cx="1095.45" cy="930" r="50" fill="white"/>
</g>
<g clip-path="url(#clip14_144_8910)">
<circle cx="1304.55" cy="930" r="50" fill="white"/>
</g>
<circle cx="1513.64" cy="930" r="20" fill="white"/>
<circle cx="1722.73" cy="930" r="5" fill="white"/>
<circle cx="1931.82" cy="930" r="5" fill="white"/>
<circle cx="2140.91" cy="930" r="20" fill="white"/>
<g clip-path="url(#clip15_144_8910)">
<circle cx="2350" cy="930" r="50" fill="white"/>
</g>
<circle cx="50" cy="1150" r="5" fill="white"/>
<circle cx="259.091" cy="1150" r="5" fill="white"/>
<circle cx="468.182" cy="1150" r="5" fill="white"/>
<circle cx="677.272" cy="1150" r="5" fill="white"/>
<circle cx="886.364" cy="1150" r="5" fill="white"/>
<circle cx="1095.45" cy="1150" r="5" fill="white"/>
<circle cx="1304.55" cy="1150" r="5" fill="white"/>
<circle cx="1513.64" cy="1150" r="5" fill="white"/>
<circle cx="1722.73" cy="1150" r="5" fill="white"/>
<circle cx="1931.82" cy="1150" r="5" fill="white"/>
<circle cx="2140.91" cy="1150" r="5" fill="white"/>
<circle cx="2350" cy="1150" r="5" fill="white"/>
<defs>
<clipPath id="clip0_144_8910">
<rect width="100" height="100" fill="white" transform="translate(418.182)"/>
</clipPath>
<clipPath id="clip1_144_8910">
<rect width="100" height="100" fill="white" transform="translate(627.272)"/>
</clipPath>
<clipPath id="clip2_144_8910">
<rect width="100" height="100" fill="white" transform="translate(1672.73)"/>
</clipPath>
<clipPath id="clip3_144_8910">
<rect width="100" height="100" fill="white" transform="translate(1881.82)"/>
</clipPath>
<clipPath id="clip4_144_8910">
<rect width="100" height="100" fill="white" transform="translate(0 220)"/>
</clipPath>
<clipPath id="clip5_144_8910">
<rect width="100" height="100" fill="white" transform="translate(1045.45 220)"/>
</clipPath>
<clipPath id="clip6_144_8910">
<rect width="100" height="100" fill="white" transform="translate(1254.55 220)"/>
</clipPath>
<clipPath id="clip7_144_8910">
<rect width="100" height="100" fill="white" transform="translate(2300 220)"/>
</clipPath>
<clipPath id="clip8_144_8910">
<rect width="100" height="100" fill="white" transform="translate(418.182 660)"/>
</clipPath>
<clipPath id="clip9_144_8910">
<rect width="100" height="100" fill="white" transform="translate(627.272 660)"/>
</clipPath>
<clipPath id="clip10_144_8910">
<rect width="100" height="100" fill="white" transform="translate(1672.73 660)"/>
</clipPath>
<clipPath id="clip11_144_8910">
<rect width="100" height="100" fill="white" transform="translate(1881.82 660)"/>
</clipPath>
<clipPath id="clip12_144_8910">
<rect width="100" height="100" fill="white" transform="translate(0 880)"/>
</clipPath>
<clipPath id="clip13_144_8910">
<rect width="100" height="100" fill="white" transform="translate(1045.45 880)"/>
</clipPath>
<clipPath id="clip14_144_8910">
<rect width="100" height="100" fill="white" transform="translate(1254.55 880)"/>
</clipPath>
<clipPath id="clip15_144_8910">
<rect width="100" height="100" fill="white" transform="translate(2300 880)"/>
</clipPath>
</defs>
</svg>
