<svg width="2400" height="1200" viewBox="0 0 2400 1200" fill="none" xmlns="http://www.w3.org/2000/svg">
<circle cx="50" cy="50" r="5" fill="white"/>
<circle cx="185.294" cy="50" r="10" fill="white"/>
<circle cx="320.588" cy="50" r="30" fill="white"/>
<circle cx="455.882" cy="50" r="40" fill="white"/>
<g clip-path="url(#clip0_144_12694)">
<circle cx="591.176" cy="50" r="50" fill="white"/>
</g>
<circle cx="726.471" cy="50" r="40" fill="white"/>
<circle cx="861.765" cy="50" r="30" fill="white"/>
<circle cx="997.059" cy="50" r="10" fill="white"/>
<circle cx="1132.35" cy="50" r="5" fill="white"/>
<circle cx="1267.65" cy="50" r="5" fill="white"/>
<circle cx="1402.94" cy="50" r="10" fill="white"/>
<circle cx="1538.24" cy="50" r="30" fill="white"/>
<circle cx="1673.53" cy="50" r="40" fill="white"/>
<g clip-path="url(#clip1_144_12694)">
<circle cx="1808.82" cy="50" r="50" fill="white"/>
</g>
<circle cx="1944.12" cy="50" r="40" fill="white"/>
<circle cx="2079.41" cy="50" r="30" fill="white"/>
<circle cx="2214.71" cy="50" r="10" fill="white"/>
<circle cx="2350" cy="50" r="5" fill="white"/>
<g clip-path="url(#clip2_144_12694)">
<circle cx="50" cy="187.5" r="50" fill="white"/>
</g>
<circle cx="185.294" cy="187.5" r="40" fill="white"/>
<circle cx="320.588" cy="187.5" r="30" fill="white"/>
<circle cx="455.882" cy="187.5" r="10" fill="white"/>
<circle cx="591.176" cy="187.5" r="5" fill="white"/>
<circle cx="726.471" cy="187.5" r="10" fill="white"/>
<circle cx="861.765" cy="187.5" r="30" fill="white"/>
<circle cx="997.059" cy="187.5" r="40" fill="white"/>
<g clip-path="url(#clip3_144_12694)">
<circle cx="1132.35" cy="187.5" r="50" fill="white"/>
</g>
<g clip-path="url(#clip4_144_12694)">
<circle cx="1267.65" cy="187.5" r="50" fill="white"/>
</g>
<circle cx="1402.94" cy="187.5" r="40" fill="white"/>
<circle cx="1538.24" cy="187.5" r="30" fill="white"/>
<circle cx="1673.53" cy="187.5" r="10" fill="white"/>
<circle cx="1808.82" cy="187.5" r="5" fill="white"/>
<circle cx="1944.12" cy="187.5" r="10" fill="white"/>
<circle cx="2079.41" cy="187.5" r="30" fill="white"/>
<circle cx="2214.71" cy="187.5" r="40" fill="white"/>
<g clip-path="url(#clip5_144_12694)">
<circle cx="2350" cy="187.5" r="50" fill="white"/>
</g>
<circle cx="50" cy="325" r="5" fill="white"/>
<circle cx="185.294" cy="325" r="5" fill="white"/>
<circle cx="320.588" cy="325" r="5" fill="white"/>
<circle cx="455.882" cy="325" r="5" fill="white"/>
<circle cx="591.176" cy="325" r="5" fill="white"/>
<circle cx="726.471" cy="325" r="5" fill="white"/>
<circle cx="861.765" cy="325" r="5" fill="white"/>
<circle cx="997.059" cy="325" r="5" fill="white"/>
<circle cx="1132.35" cy="325" r="5" fill="white"/>
<circle cx="1267.65" cy="325" r="5" fill="white"/>
<circle cx="1402.94" cy="325" r="5" fill="white"/>
<circle cx="1538.24" cy="325" r="5" fill="white"/>
<circle cx="1673.53" cy="325" r="5" fill="white"/>
<circle cx="1808.82" cy="325" r="5" fill="white"/>
<circle cx="1944.12" cy="325" r="5" fill="white"/>
<circle cx="2079.41" cy="325" r="5" fill="white"/>
<circle cx="2214.71" cy="325" r="5" fill="white"/>
<circle cx="2350" cy="325" r="5" fill="white"/>
<circle cx="50" cy="462.5" r="5" fill="white"/>
<circle cx="185.294" cy="462.5" r="10" fill="white"/>
<circle cx="320.588" cy="462.5" r="30" fill="white"/>
<circle cx="455.882" cy="462.5" r="40" fill="white"/>
<g clip-path="url(#clip6_144_12694)">
<circle cx="591.176" cy="462.5" r="50" fill="white"/>
</g>
<circle cx="726.471" cy="462.5" r="40" fill="white"/>
<circle cx="861.765" cy="462.5" r="30" fill="white"/>
<circle cx="997.059" cy="462.5" r="10" fill="white"/>
<circle cx="1132.35" cy="462.5" r="5" fill="white"/>
<circle cx="1267.65" cy="462.5" r="5" fill="white"/>
<circle cx="1402.94" cy="462.5" r="10" fill="white"/>
<circle cx="1538.24" cy="462.5" r="30" fill="white"/>
<circle cx="1673.53" cy="462.5" r="40" fill="white"/>
<g clip-path="url(#clip7_144_12694)">
<circle cx="1808.82" cy="462.5" r="50" fill="white"/>
</g>
<circle cx="1944.12" cy="462.5" r="40" fill="white"/>
<circle cx="2079.41" cy="462.5" r="30" fill="white"/>
<circle cx="2214.71" cy="462.5" r="10" fill="white"/>
<circle cx="2350" cy="462.5" r="5" fill="white"/>
<g clip-path="url(#clip8_144_12694)">
<circle cx="50" cy="600" r="50" fill="white"/>
</g>
<circle cx="185.294" cy="600" r="40" fill="white"/>
<circle cx="320.588" cy="600" r="30" fill="white"/>
<circle cx="455.882" cy="600" r="10" fill="white"/>
<circle cx="591.176" cy="600" r="5" fill="white"/>
<circle cx="726.471" cy="600" r="10" fill="white"/>
<circle cx="861.765" cy="600" r="30" fill="white"/>
<circle cx="997.059" cy="600" r="40" fill="white"/>
<g clip-path="url(#clip9_144_12694)">
<circle cx="1132.35" cy="600" r="50" fill="white"/>
</g>
<g clip-path="url(#clip10_144_12694)">
<circle cx="1267.65" cy="600" r="50" fill="white"/>
</g>
<circle cx="1402.94" cy="600" r="40" fill="white"/>
<circle cx="1538.24" cy="600" r="30" fill="white"/>
<circle cx="1673.53" cy="600" r="10" fill="white"/>
<circle cx="1808.82" cy="600" r="5" fill="white"/>
<circle cx="1944.12" cy="600" r="10" fill="white"/>
<circle cx="2079.41" cy="600" r="30" fill="white"/>
<circle cx="2214.71" cy="600" r="40" fill="white"/>
<g clip-path="url(#clip11_144_12694)">
<circle cx="2350" cy="600" r="50" fill="white"/>
</g>
<circle cx="50" cy="737.5" r="5" fill="white"/>
<circle cx="185.294" cy="737.5" r="5" fill="white"/>
<circle cx="320.588" cy="737.5" r="5" fill="white"/>
<circle cx="455.882" cy="737.5" r="5" fill="white"/>
<circle cx="591.176" cy="737.5" r="5" fill="white"/>
<circle cx="726.471" cy="737.5" r="5" fill="white"/>
<circle cx="861.765" cy="737.5" r="5" fill="white"/>
<circle cx="997.059" cy="737.5" r="5" fill="white"/>
<circle cx="1132.35" cy="737.5" r="5" fill="white"/>
<circle cx="1267.65" cy="737.5" r="5" fill="white"/>
<circle cx="1402.94" cy="737.5" r="5" fill="white"/>
<circle cx="1538.24" cy="737.5" r="5" fill="white"/>
<circle cx="1673.53" cy="737.5" r="5" fill="white"/>
<circle cx="1808.82" cy="737.5" r="5" fill="white"/>
<circle cx="1944.12" cy="737.5" r="5" fill="white"/>
<circle cx="2079.41" cy="737.5" r="5" fill="white"/>
<circle cx="2214.71" cy="737.5" r="5" fill="white"/>
<circle cx="2350" cy="737.5" r="5" fill="white"/>
<circle cx="50" cy="875" r="5" fill="white"/>
<circle cx="185.294" cy="875" r="10" fill="white"/>
<circle cx="320.588" cy="875" r="30" fill="white"/>
<circle cx="455.882" cy="875" r="40" fill="white"/>
<g clip-path="url(#clip12_144_12694)">
<circle cx="591.176" cy="875" r="50" fill="white"/>
</g>
<circle cx="726.471" cy="875" r="40" fill="white"/>
<circle cx="861.765" cy="875" r="30" fill="white"/>
<circle cx="997.059" cy="875" r="10" fill="white"/>
<circle cx="1132.35" cy="875" r="5" fill="white"/>
<circle cx="1267.65" cy="875" r="5" fill="white"/>
<circle cx="1402.94" cy="875" r="10" fill="white"/>
<circle cx="1538.24" cy="875" r="30" fill="white"/>
<circle cx="1673.53" cy="875" r="40" fill="white"/>
<g clip-path="url(#clip13_144_12694)">
<circle cx="1808.82" cy="875" r="50" fill="white"/>
</g>
<circle cx="1944.12" cy="875" r="40" fill="white"/>
<circle cx="2079.41" cy="875" r="30" fill="white"/>
<circle cx="2214.71" cy="875" r="10" fill="white"/>
<circle cx="2350" cy="875" r="5" fill="white"/>
<g clip-path="url(#clip14_144_12694)">
<circle cx="50" cy="1012.5" r="50" fill="white"/>
</g>
<circle cx="185.294" cy="1012.5" r="40" fill="white"/>
<circle cx="320.588" cy="1012.5" r="30" fill="white"/>
<circle cx="455.882" cy="1012.5" r="10" fill="white"/>
<circle cx="591.176" cy="1012.5" r="5" fill="white"/>
<circle cx="726.471" cy="1012.5" r="10" fill="white"/>
<circle cx="861.765" cy="1012.5" r="30" fill="white"/>
<circle cx="997.059" cy="1012.5" r="40" fill="white"/>
<g clip-path="url(#clip15_144_12694)">
<circle cx="1132.35" cy="1012.5" r="50" fill="white"/>
</g>
<g clip-path="url(#clip16_144_12694)">
<circle cx="1267.65" cy="1012.5" r="50" fill="white"/>
</g>
<circle cx="1402.94" cy="1012.5" r="40" fill="white"/>
<circle cx="1538.24" cy="1012.5" r="30" fill="white"/>
<circle cx="1673.53" cy="1012.5" r="10" fill="white"/>
<circle cx="1808.82" cy="1012.5" r="5" fill="white"/>
<circle cx="1944.12" cy="1012.5" r="10" fill="white"/>
<circle cx="2079.41" cy="1012.5" r="30" fill="white"/>
<circle cx="2214.71" cy="1012.5" r="40" fill="white"/>
<g clip-path="url(#clip17_144_12694)">
<circle cx="2350" cy="1012.5" r="50" fill="white"/>
</g>
<circle cx="50" cy="1150" r="5" fill="white"/>
<circle cx="185.294" cy="1150" r="5" fill="white"/>
<circle cx="320.588" cy="1150" r="5" fill="white"/>
<circle cx="455.882" cy="1150" r="5" fill="white"/>
<circle cx="591.176" cy="1150" r="5" fill="white"/>
<circle cx="726.471" cy="1150" r="5" fill="white"/>
<circle cx="861.765" cy="1150" r="5" fill="white"/>
<circle cx="997.059" cy="1150" r="5" fill="white"/>
<circle cx="1132.35" cy="1150" r="5" fill="white"/>
<circle cx="1267.65" cy="1150" r="5" fill="white"/>
<circle cx="1402.94" cy="1150" r="5" fill="white"/>
<circle cx="1538.24" cy="1150" r="5" fill="white"/>
<circle cx="1673.53" cy="1150" r="5" fill="white"/>
<circle cx="1808.82" cy="1150" r="5" fill="white"/>
<circle cx="1944.12" cy="1150" r="5" fill="white"/>
<circle cx="2079.41" cy="1150" r="5" fill="white"/>
<circle cx="2214.71" cy="1150" r="5" fill="white"/>
<circle cx="2350" cy="1150" r="5" fill="white"/>
<defs>
<clipPath id="clip0_144_12694">
<rect width="100" height="100" fill="white" transform="translate(541.176)"/>
</clipPath>
<clipPath id="clip1_144_12694">
<rect width="100" height="100" fill="white" transform="translate(1758.82)"/>
</clipPath>
<clipPath id="clip2_144_12694">
<rect width="100" height="100" fill="white" transform="translate(0 137.5)"/>
</clipPath>
<clipPath id="clip3_144_12694">
<rect width="100" height="100" fill="white" transform="translate(1082.35 137.5)"/>
</clipPath>
<clipPath id="clip4_144_12694">
<rect width="100" height="100" fill="white" transform="translate(1217.65 137.5)"/>
</clipPath>
<clipPath id="clip5_144_12694">
<rect width="100" height="100" fill="white" transform="translate(2300 137.5)"/>
</clipPath>
<clipPath id="clip6_144_12694">
<rect width="100" height="100" fill="white" transform="translate(541.176 412.5)"/>
</clipPath>
<clipPath id="clip7_144_12694">
<rect width="100" height="100" fill="white" transform="translate(1758.82 412.5)"/>
</clipPath>
<clipPath id="clip8_144_12694">
<rect width="100" height="100" fill="white" transform="translate(0 550)"/>
</clipPath>
<clipPath id="clip9_144_12694">
<rect width="100" height="100" fill="white" transform="translate(1082.35 550)"/>
</clipPath>
<clipPath id="clip10_144_12694">
<rect width="100" height="100" fill="white" transform="translate(1217.65 550)"/>
</clipPath>
<clipPath id="clip11_144_12694">
<rect width="100" height="100" fill="white" transform="translate(2300 550)"/>
</clipPath>
<clipPath id="clip12_144_12694">
<rect width="100" height="100" fill="white" transform="translate(541.176 825)"/>
</clipPath>
<clipPath id="clip13_144_12694">
<rect width="100" height="100" fill="white" transform="translate(1758.82 825)"/>
</clipPath>
<clipPath id="clip14_144_12694">
<rect width="100" height="100" fill="white" transform="translate(0 962.5)"/>
</clipPath>
<clipPath id="clip15_144_12694">
<rect width="100" height="100" fill="white" transform="translate(1082.35 962.5)"/>
</clipPath>
<clipPath id="clip16_144_12694">
<rect width="100" height="100" fill="white" transform="translate(1217.65 962.5)"/>
</clipPath>
<clipPath id="clip17_144_12694">
<rect width="100" height="100" fill="white" transform="translate(2300 962.5)"/>
</clipPath>
</defs>
</svg>
