<svg width="2400" height="1200" viewBox="0 0 2400 1200" fill="none" xmlns="http://www.w3.org/2000/svg">
<circle cx="50" cy="50" r="5" fill="white"/>
<circle cx="150" cy="50" r="5" fill="white"/>
<circle cx="250" cy="50" r="10" fill="white"/>
<circle cx="350" cy="50" r="30" fill="white"/>
<g clip-path="url(#clip0_187_4995)">
<circle cx="450" cy="50" r="50" fill="white"/>
</g>
<circle cx="550" cy="50" r="30" fill="white"/>
<circle cx="650" cy="50" r="10" fill="white"/>
<circle cx="750" cy="50" r="5" fill="white"/>
<circle cx="850" cy="50" r="5" fill="white"/>
<circle cx="950" cy="50" r="5" fill="white"/>
<circle cx="1050" cy="50" r="10" fill="white"/>
<circle cx="1150" cy="50" r="30" fill="white"/>
<g clip-path="url(#clip1_187_4995)">
<circle cx="1250" cy="50" r="50" fill="white"/>
</g>
<circle cx="1350" cy="50" r="30" fill="white"/>
<circle cx="1450" cy="50" r="10" fill="white"/>
<circle cx="1550" cy="50" r="5" fill="white"/>
<circle cx="1650" cy="50" r="5" fill="white"/>
<circle cx="1750" cy="50" r="5" fill="white"/>
<circle cx="1850" cy="50" r="10" fill="white"/>
<circle cx="1950" cy="50" r="30" fill="white"/>
<g clip-path="url(#clip2_187_4995)">
<circle cx="2050" cy="50" r="50" fill="white"/>
</g>
<circle cx="2150" cy="50" r="30" fill="white"/>
<circle cx="2250" cy="50" r="10" fill="white"/>
<circle cx="2350" cy="50" r="5" fill="white"/>
<circle cx="50" cy="450" r="10" fill="white"/>
<circle cx="150" cy="450" r="30" fill="white"/>
<g clip-path="url(#clip3_187_4995)">
<circle cx="250" cy="450" r="50" fill="white"/>
</g>
<circle cx="350" cy="450" r="30" fill="white"/>
<circle cx="450" cy="450" r="10" fill="white"/>
<circle cx="550" cy="450" r="30" fill="white"/>
<g clip-path="url(#clip4_187_4995)">
<circle cx="650" cy="450" r="50" fill="white"/>
</g>
<circle cx="750" cy="450" r="30" fill="white"/>
<circle cx="850" cy="450" r="10" fill="white"/>
<circle cx="950" cy="450" r="30" fill="white"/>
<g clip-path="url(#clip5_187_4995)">
<circle cx="1050" cy="450" r="50" fill="white"/>
</g>
<circle cx="1150" cy="450" r="30" fill="white"/>
<circle cx="1250" cy="450" r="10" fill="white"/>
<circle cx="1350" cy="450" r="30" fill="white"/>
<g clip-path="url(#clip6_187_4995)">
<circle cx="1450" cy="450" r="50" fill="white"/>
</g>
<circle cx="1550" cy="450" r="30" fill="white"/>
<circle cx="1650" cy="450" r="10" fill="white"/>
<circle cx="1750" cy="450" r="30" fill="white"/>
<g clip-path="url(#clip7_187_4995)">
<circle cx="1850" cy="450" r="50" fill="white"/>
</g>
<circle cx="1950" cy="450" r="30" fill="white"/>
<circle cx="2050" cy="450" r="10" fill="white"/>
<circle cx="2150" cy="450" r="30" fill="white"/>
<g clip-path="url(#clip8_187_4995)">
<circle cx="2250" cy="450" r="50" fill="white"/>
</g>
<circle cx="2350" cy="450" r="30" fill="white"/>
<circle cx="50" cy="850" r="30" fill="white"/>
<g clip-path="url(#clip9_187_4995)">
<circle cx="150" cy="850" r="50" fill="white"/>
</g>
<circle cx="250" cy="850" r="30" fill="white"/>
<circle cx="350" cy="850" r="10" fill="white"/>
<circle cx="450" cy="850" r="5" fill="white"/>
<circle cx="550" cy="850" r="10" fill="white"/>
<circle cx="650" cy="850" r="30" fill="white"/>
<g clip-path="url(#clip10_187_4995)">
<circle cx="750" cy="850" r="50" fill="white"/>
</g>
<circle cx="850" cy="850" r="30" fill="white"/>
<g clip-path="url(#clip11_187_4995)">
<circle cx="950" cy="850" r="50" fill="white"/>
</g>
<circle cx="1050" cy="850" r="30" fill="white"/>
<circle cx="1150" cy="850" r="10" fill="white"/>
<circle cx="1250" cy="850" r="5" fill="white"/>
<circle cx="1350" cy="850" r="10" fill="white"/>
<circle cx="1450" cy="850" r="30" fill="white"/>
<g clip-path="url(#clip12_187_4995)">
<circle cx="1550" cy="850" r="50" fill="white"/>
</g>
<circle cx="1650" cy="850" r="30" fill="white"/>
<g clip-path="url(#clip13_187_4995)">
<circle cx="1750" cy="850" r="50" fill="white"/>
</g>
<circle cx="1850" cy="850" r="30" fill="white"/>
<circle cx="1950" cy="850" r="10" fill="white"/>
<circle cx="2050" cy="850" r="5" fill="white"/>
<circle cx="2150" cy="850" r="10" fill="white"/>
<circle cx="2250" cy="850" r="30" fill="white"/>
<g clip-path="url(#clip14_187_4995)">
<circle cx="2350" cy="850" r="50" fill="white"/>
</g>
<circle cx="50" cy="250" r="5" fill="white"/>
<circle cx="150" cy="250" r="10" fill="white"/>
<circle cx="250" cy="250" r="30" fill="white"/>
<g clip-path="url(#clip15_187_4995)">
<circle cx="350" cy="250" r="50" fill="white"/>
</g>
<circle cx="450" cy="250" r="30" fill="white"/>
<g clip-path="url(#clip16_187_4995)">
<circle cx="550" cy="250" r="50" fill="white"/>
</g>
<circle cx="650" cy="250" r="30" fill="white"/>
<circle cx="750" cy="250" r="10" fill="white"/>
<circle cx="850" cy="250" r="5" fill="white"/>
<circle cx="950" cy="250" r="10" fill="white"/>
<circle cx="1050" cy="250" r="30" fill="white"/>
<g clip-path="url(#clip17_187_4995)">
<circle cx="1150" cy="250" r="50" fill="white"/>
</g>
<circle cx="1250" cy="250" r="30" fill="white"/>
<g clip-path="url(#clip18_187_4995)">
<circle cx="1350" cy="250" r="50" fill="white"/>
</g>
<circle cx="1450" cy="250" r="30" fill="white"/>
<circle cx="1550" cy="250" r="10" fill="white"/>
<circle cx="1650" cy="250" r="5" fill="white"/>
<circle cx="1750" cy="250" r="10" fill="white"/>
<circle cx="1850" cy="250" r="30" fill="white"/>
<g clip-path="url(#clip19_187_4995)">
<circle cx="1950" cy="250" r="50" fill="white"/>
</g>
<circle cx="2050" cy="250" r="30" fill="white"/>
<g clip-path="url(#clip20_187_4995)">
<circle cx="2150" cy="250" r="50" fill="white"/>
</g>
<circle cx="2250" cy="250" r="30" fill="white"/>
<circle cx="2350" cy="250" r="10" fill="white"/>
<circle cx="50" cy="650" r="10" fill="white"/>
<circle cx="150" cy="650" r="30" fill="white"/>
<g clip-path="url(#clip21_187_4995)">
<circle cx="250" cy="650" r="50" fill="white"/>
</g>
<circle cx="350" cy="650" r="30" fill="white"/>
<circle cx="450" cy="650" r="10" fill="white"/>
<circle cx="550" cy="650" r="30" fill="white"/>
<g clip-path="url(#clip22_187_4995)">
<circle cx="650" cy="650" r="50" fill="white"/>
</g>
<circle cx="750" cy="650" r="30" fill="white"/>
<circle cx="850" cy="650" r="10" fill="white"/>
<circle cx="950" cy="650" r="30" fill="white"/>
<g clip-path="url(#clip23_187_4995)">
<circle cx="1050" cy="650" r="50" fill="white"/>
</g>
<circle cx="1150" cy="650" r="30" fill="white"/>
<circle cx="1250" cy="650" r="10" fill="white"/>
<circle cx="1350" cy="650" r="30" fill="white"/>
<g clip-path="url(#clip24_187_4995)">
<circle cx="1450" cy="650" r="50" fill="white"/>
</g>
<circle cx="1550" cy="650" r="30" fill="white"/>
<circle cx="1650" cy="650" r="10" fill="white"/>
<circle cx="1750" cy="650" r="30" fill="white"/>
<g clip-path="url(#clip25_187_4995)">
<circle cx="1850" cy="650" r="50" fill="white"/>
</g>
<circle cx="1950" cy="650" r="30" fill="white"/>
<circle cx="2050" cy="650" r="10" fill="white"/>
<circle cx="2150" cy="650" r="30" fill="white"/>
<g clip-path="url(#clip26_187_4995)">
<circle cx="2250" cy="650" r="50" fill="white"/>
</g>
<circle cx="2350" cy="650" r="30" fill="white"/>
<circle cx="50" cy="1050" r="30" fill="white"/>
<g clip-path="url(#clip27_187_4995)">
<circle cx="150" cy="1050" r="50" fill="white"/>
</g>
<circle cx="250" cy="1050" r="30" fill="white"/>
<circle cx="350" cy="1050" r="10" fill="white"/>
<circle cx="450" cy="1050" r="5" fill="white"/>
<circle cx="550" cy="1050" r="10" fill="white"/>
<circle cx="650" cy="1050" r="30" fill="white"/>
<g clip-path="url(#clip28_187_4995)">
<circle cx="750" cy="1050" r="50" fill="white"/>
</g>
<circle cx="850" cy="1050" r="30" fill="white"/>
<g clip-path="url(#clip29_187_4995)">
<circle cx="950" cy="1050" r="50" fill="white"/>
</g>
<circle cx="1050" cy="1050" r="30" fill="white"/>
<circle cx="1150" cy="1050" r="10" fill="white"/>
<circle cx="1250" cy="1050" r="5" fill="white"/>
<circle cx="1350" cy="1050" r="10" fill="white"/>
<circle cx="1450" cy="1050" r="30" fill="white"/>
<g clip-path="url(#clip30_187_4995)">
<circle cx="1550" cy="1050" r="50" fill="white"/>
</g>
<circle cx="1650" cy="1050" r="30" fill="white"/>
<g clip-path="url(#clip31_187_4995)">
<circle cx="1750" cy="1050" r="50" fill="white"/>
</g>
<circle cx="1850" cy="1050" r="30" fill="white"/>
<circle cx="1950" cy="1050" r="10" fill="white"/>
<circle cx="2050" cy="1050" r="5" fill="white"/>
<circle cx="2150" cy="1050" r="10" fill="white"/>
<circle cx="2250" cy="1050" r="30" fill="white"/>
<g clip-path="url(#clip32_187_4995)">
<circle cx="2350" cy="1050" r="50" fill="white"/>
</g>
<circle cx="50" cy="150" r="5" fill="white"/>
<circle cx="150" cy="150" r="10" fill="white"/>
<circle cx="250" cy="150" r="30" fill="white"/>
<g clip-path="url(#clip33_187_4995)">
<circle cx="350" cy="150" r="50" fill="white"/>
</g>
<circle cx="450" cy="150" r="30" fill="white"/>
<g clip-path="url(#clip34_187_4995)">
<circle cx="550" cy="150" r="50" fill="white"/>
</g>
<circle cx="650" cy="150" r="30" fill="white"/>
<circle cx="750" cy="150" r="10" fill="white"/>
<circle cx="850" cy="150" r="5" fill="white"/>
<circle cx="950" cy="150" r="10" fill="white"/>
<circle cx="1050" cy="150" r="30" fill="white"/>
<g clip-path="url(#clip35_187_4995)">
<circle cx="1150" cy="150" r="50" fill="white"/>
</g>
<circle cx="1250" cy="150" r="30" fill="white"/>
<g clip-path="url(#clip36_187_4995)">
<circle cx="1350" cy="150" r="50" fill="white"/>
</g>
<circle cx="1450" cy="150" r="30" fill="white"/>
<circle cx="1550" cy="150" r="10" fill="white"/>
<circle cx="1650" cy="150" r="5" fill="white"/>
<circle cx="1750" cy="150" r="10" fill="white"/>
<circle cx="1850" cy="150" r="30" fill="white"/>
<g clip-path="url(#clip37_187_4995)">
<circle cx="1950" cy="150" r="50" fill="white"/>
</g>
<circle cx="2050" cy="150" r="30" fill="white"/>
<g clip-path="url(#clip38_187_4995)">
<circle cx="2150" cy="150" r="50" fill="white"/>
</g>
<circle cx="2250" cy="150" r="30" fill="white"/>
<circle cx="2350" cy="150" r="10" fill="white"/>
<circle cx="50" cy="550" r="10" fill="white"/>
<circle cx="150" cy="550" r="30" fill="white"/>
<g clip-path="url(#clip39_187_4995)">
<circle cx="250" cy="550" r="50" fill="white"/>
</g>
<circle cx="350" cy="550" r="30" fill="white"/>
<circle cx="450" cy="550" r="10" fill="white"/>
<circle cx="550" cy="550" r="30" fill="white"/>
<g clip-path="url(#clip40_187_4995)">
<circle cx="650" cy="550" r="50" fill="white"/>
</g>
<circle cx="750" cy="550" r="30" fill="white"/>
<circle cx="850" cy="550" r="10" fill="white"/>
<circle cx="950" cy="550" r="30" fill="white"/>
<g clip-path="url(#clip41_187_4995)">
<circle cx="1050" cy="550" r="50" fill="white"/>
</g>
<circle cx="1150" cy="550" r="30" fill="white"/>
<circle cx="1250" cy="550" r="10" fill="white"/>
<circle cx="1350" cy="550" r="30" fill="white"/>
<g clip-path="url(#clip42_187_4995)">
<circle cx="1450" cy="550" r="50" fill="white"/>
</g>
<circle cx="1550" cy="550" r="30" fill="white"/>
<circle cx="1650" cy="550" r="10" fill="white"/>
<circle cx="1750" cy="550" r="30" fill="white"/>
<g clip-path="url(#clip43_187_4995)">
<circle cx="1850" cy="550" r="50" fill="white"/>
</g>
<circle cx="1950" cy="550" r="30" fill="white"/>
<circle cx="2050" cy="550" r="10" fill="white"/>
<circle cx="2150" cy="550" r="30" fill="white"/>
<g clip-path="url(#clip44_187_4995)">
<circle cx="2250" cy="550" r="50" fill="white"/>
</g>
<circle cx="2350" cy="550" r="30" fill="white"/>
<circle cx="50" cy="950" r="30" fill="white"/>
<g clip-path="url(#clip45_187_4995)">
<circle cx="150" cy="950" r="50" fill="white"/>
</g>
<circle cx="250" cy="950" r="30" fill="white"/>
<circle cx="350" cy="950" r="10" fill="white"/>
<circle cx="450" cy="950" r="5" fill="white"/>
<circle cx="550" cy="950" r="10" fill="white"/>
<circle cx="650" cy="950" r="30" fill="white"/>
<g clip-path="url(#clip46_187_4995)">
<circle cx="750" cy="950" r="50" fill="white"/>
</g>
<circle cx="850" cy="950" r="30" fill="white"/>
<g clip-path="url(#clip47_187_4995)">
<circle cx="950" cy="950" r="50" fill="white"/>
</g>
<circle cx="1050" cy="950" r="30" fill="white"/>
<circle cx="1150" cy="950" r="10" fill="white"/>
<circle cx="1250" cy="950" r="5" fill="white"/>
<circle cx="1350" cy="950" r="10" fill="white"/>
<circle cx="1450" cy="950" r="30" fill="white"/>
<g clip-path="url(#clip48_187_4995)">
<circle cx="1550" cy="950" r="50" fill="white"/>
</g>
<circle cx="1650" cy="950" r="30" fill="white"/>
<g clip-path="url(#clip49_187_4995)">
<circle cx="1750" cy="950" r="50" fill="white"/>
</g>
<circle cx="1850" cy="950" r="30" fill="white"/>
<circle cx="1950" cy="950" r="10" fill="white"/>
<circle cx="2050" cy="950" r="5" fill="white"/>
<circle cx="2150" cy="950" r="10" fill="white"/>
<circle cx="2250" cy="950" r="30" fill="white"/>
<g clip-path="url(#clip50_187_4995)">
<circle cx="2350" cy="950" r="50" fill="white"/>
</g>
<circle cx="50" cy="350" r="5" fill="white"/>
<circle cx="150" cy="350" r="10" fill="white"/>
<circle cx="250" cy="350" r="30" fill="white"/>
<g clip-path="url(#clip51_187_4995)">
<circle cx="350" cy="350" r="50" fill="white"/>
</g>
<circle cx="450" cy="350" r="30" fill="white"/>
<g clip-path="url(#clip52_187_4995)">
<circle cx="550" cy="350" r="50" fill="white"/>
</g>
<circle cx="650" cy="350" r="30" fill="white"/>
<circle cx="750" cy="350" r="10" fill="white"/>
<circle cx="850" cy="350" r="5" fill="white"/>
<circle cx="950" cy="350" r="10" fill="white"/>
<circle cx="1050" cy="350" r="30" fill="white"/>
<g clip-path="url(#clip53_187_4995)">
<circle cx="1150" cy="350" r="50" fill="white"/>
</g>
<circle cx="1250" cy="350" r="30" fill="white"/>
<g clip-path="url(#clip54_187_4995)">
<circle cx="1350" cy="350" r="50" fill="white"/>
</g>
<circle cx="1450" cy="350" r="30" fill="white"/>
<circle cx="1550" cy="350" r="10" fill="white"/>
<circle cx="1650" cy="350" r="5" fill="white"/>
<circle cx="1750" cy="350" r="10" fill="white"/>
<circle cx="1850" cy="350" r="30" fill="white"/>
<g clip-path="url(#clip55_187_4995)">
<circle cx="1950" cy="350" r="50" fill="white"/>
</g>
<circle cx="2050" cy="350" r="30" fill="white"/>
<g clip-path="url(#clip56_187_4995)">
<circle cx="2150" cy="350" r="50" fill="white"/>
</g>
<circle cx="2250" cy="350" r="30" fill="white"/>
<circle cx="2350" cy="350" r="10" fill="white"/>
<circle cx="50" cy="750" r="10" fill="white"/>
<circle cx="150" cy="750" r="30" fill="white"/>
<g clip-path="url(#clip57_187_4995)">
<circle cx="250" cy="750" r="50" fill="white"/>
</g>
<circle cx="350" cy="750" r="30" fill="white"/>
<circle cx="450" cy="750" r="10" fill="white"/>
<circle cx="550" cy="750" r="30" fill="white"/>
<g clip-path="url(#clip58_187_4995)">
<circle cx="650" cy="750" r="50" fill="white"/>
</g>
<circle cx="750" cy="750" r="30" fill="white"/>
<circle cx="850" cy="750" r="10" fill="white"/>
<circle cx="950" cy="750" r="30" fill="white"/>
<g clip-path="url(#clip59_187_4995)">
<circle cx="1050" cy="750" r="50" fill="white"/>
</g>
<circle cx="1150" cy="750" r="30" fill="white"/>
<circle cx="1250" cy="750" r="10" fill="white"/>
<circle cx="1350" cy="750" r="30" fill="white"/>
<g clip-path="url(#clip60_187_4995)">
<circle cx="1450" cy="750" r="50" fill="white"/>
</g>
<circle cx="1550" cy="750" r="30" fill="white"/>
<circle cx="1650" cy="750" r="10" fill="white"/>
<circle cx="1750" cy="750" r="30" fill="white"/>
<g clip-path="url(#clip61_187_4995)">
<circle cx="1850" cy="750" r="50" fill="white"/>
</g>
<circle cx="1950" cy="750" r="30" fill="white"/>
<circle cx="2050" cy="750" r="10" fill="white"/>
<circle cx="2150" cy="750" r="30" fill="white"/>
<g clip-path="url(#clip62_187_4995)">
<circle cx="2250" cy="750" r="50" fill="white"/>
</g>
<circle cx="2350" cy="750" r="30" fill="white"/>
<g clip-path="url(#clip63_187_4995)">
<circle cx="50" cy="1150" r="50" fill="white"/>
</g>
<circle cx="150" cy="1150" r="30" fill="white"/>
<circle cx="250" cy="1150" r="10" fill="white"/>
<circle cx="350" cy="1150" r="5" fill="white"/>
<circle cx="450" cy="1150" r="5" fill="white"/>
<circle cx="550" cy="1150" r="5" fill="white"/>
<circle cx="650" cy="1150" r="10" fill="white"/>
<circle cx="750" cy="1150" r="30" fill="white"/>
<g clip-path="url(#clip64_187_4995)">
<circle cx="850" cy="1150" r="50" fill="white"/>
</g>
<circle cx="950" cy="1150" r="30" fill="white"/>
<circle cx="1050" cy="1150" r="10" fill="white"/>
<circle cx="1150" cy="1150" r="5" fill="white"/>
<circle cx="1250" cy="1150" r="5" fill="white"/>
<circle cx="1350" cy="1150" r="5" fill="white"/>
<circle cx="1450" cy="1150" r="10" fill="white"/>
<circle cx="1550" cy="1150" r="30" fill="white"/>
<g clip-path="url(#clip65_187_4995)">
<circle cx="1650" cy="1150" r="50" fill="white"/>
</g>
<circle cx="1750" cy="1150" r="30" fill="white"/>
<circle cx="1850" cy="1150" r="10" fill="white"/>
<circle cx="1950" cy="1150" r="5" fill="white"/>
<circle cx="2050" cy="1150" r="5" fill="white"/>
<circle cx="2150" cy="1150" r="5" fill="white"/>
<circle cx="2250" cy="1150" r="10" fill="white"/>
<circle cx="2350" cy="1150" r="30" fill="white"/>
<defs>
<clipPath id="clip0_187_4995">
<rect width="100" height="100" fill="white" transform="translate(400)"/>
</clipPath>
<clipPath id="clip1_187_4995">
<rect width="100" height="100" fill="white" transform="translate(1200)"/>
</clipPath>
<clipPath id="clip2_187_4995">
<rect width="100" height="100" fill="white" transform="translate(2000)"/>
</clipPath>
<clipPath id="clip3_187_4995">
<rect width="100" height="100" fill="white" transform="translate(200 400)"/>
</clipPath>
<clipPath id="clip4_187_4995">
<rect width="100" height="100" fill="white" transform="translate(600 400)"/>
</clipPath>
<clipPath id="clip5_187_4995">
<rect width="100" height="100" fill="white" transform="translate(1000 400)"/>
</clipPath>
<clipPath id="clip6_187_4995">
<rect width="100" height="100" fill="white" transform="translate(1400 400)"/>
</clipPath>
<clipPath id="clip7_187_4995">
<rect width="100" height="100" fill="white" transform="translate(1800 400)"/>
</clipPath>
<clipPath id="clip8_187_4995">
<rect width="100" height="100" fill="white" transform="translate(2200 400)"/>
</clipPath>
<clipPath id="clip9_187_4995">
<rect width="100" height="100" fill="white" transform="translate(100 800)"/>
</clipPath>
<clipPath id="clip10_187_4995">
<rect width="100" height="100" fill="white" transform="translate(700 800)"/>
</clipPath>
<clipPath id="clip11_187_4995">
<rect width="100" height="100" fill="white" transform="translate(900 800)"/>
</clipPath>
<clipPath id="clip12_187_4995">
<rect width="100" height="100" fill="white" transform="translate(1500 800)"/>
</clipPath>
<clipPath id="clip13_187_4995">
<rect width="100" height="100" fill="white" transform="translate(1700 800)"/>
</clipPath>
<clipPath id="clip14_187_4995">
<rect width="100" height="100" fill="white" transform="translate(2300 800)"/>
</clipPath>
<clipPath id="clip15_187_4995">
<rect width="100" height="100" fill="white" transform="translate(300 200)"/>
</clipPath>
<clipPath id="clip16_187_4995">
<rect width="100" height="100" fill="white" transform="translate(500 200)"/>
</clipPath>
<clipPath id="clip17_187_4995">
<rect width="100" height="100" fill="white" transform="translate(1100 200)"/>
</clipPath>
<clipPath id="clip18_187_4995">
<rect width="100" height="100" fill="white" transform="translate(1300 200)"/>
</clipPath>
<clipPath id="clip19_187_4995">
<rect width="100" height="100" fill="white" transform="translate(1900 200)"/>
</clipPath>
<clipPath id="clip20_187_4995">
<rect width="100" height="100" fill="white" transform="translate(2100 200)"/>
</clipPath>
<clipPath id="clip21_187_4995">
<rect width="100" height="100" fill="white" transform="translate(200 600)"/>
</clipPath>
<clipPath id="clip22_187_4995">
<rect width="100" height="100" fill="white" transform="translate(600 600)"/>
</clipPath>
<clipPath id="clip23_187_4995">
<rect width="100" height="100" fill="white" transform="translate(1000 600)"/>
</clipPath>
<clipPath id="clip24_187_4995">
<rect width="100" height="100" fill="white" transform="translate(1400 600)"/>
</clipPath>
<clipPath id="clip25_187_4995">
<rect width="100" height="100" fill="white" transform="translate(1800 600)"/>
</clipPath>
<clipPath id="clip26_187_4995">
<rect width="100" height="100" fill="white" transform="translate(2200 600)"/>
</clipPath>
<clipPath id="clip27_187_4995">
<rect width="100" height="100" fill="white" transform="translate(100 1000)"/>
</clipPath>
<clipPath id="clip28_187_4995">
<rect width="100" height="100" fill="white" transform="translate(700 1000)"/>
</clipPath>
<clipPath id="clip29_187_4995">
<rect width="100" height="100" fill="white" transform="translate(900 1000)"/>
</clipPath>
<clipPath id="clip30_187_4995">
<rect width="100" height="100" fill="white" transform="translate(1500 1000)"/>
</clipPath>
<clipPath id="clip31_187_4995">
<rect width="100" height="100" fill="white" transform="translate(1700 1000)"/>
</clipPath>
<clipPath id="clip32_187_4995">
<rect width="100" height="100" fill="white" transform="translate(2300 1000)"/>
</clipPath>
<clipPath id="clip33_187_4995">
<rect width="100" height="100" fill="white" transform="translate(300 100)"/>
</clipPath>
<clipPath id="clip34_187_4995">
<rect width="100" height="100" fill="white" transform="translate(500 100)"/>
</clipPath>
<clipPath id="clip35_187_4995">
<rect width="100" height="100" fill="white" transform="translate(1100 100)"/>
</clipPath>
<clipPath id="clip36_187_4995">
<rect width="100" height="100" fill="white" transform="translate(1300 100)"/>
</clipPath>
<clipPath id="clip37_187_4995">
<rect width="100" height="100" fill="white" transform="translate(1900 100)"/>
</clipPath>
<clipPath id="clip38_187_4995">
<rect width="100" height="100" fill="white" transform="translate(2100 100)"/>
</clipPath>
<clipPath id="clip39_187_4995">
<rect width="100" height="100" fill="white" transform="translate(200 500)"/>
</clipPath>
<clipPath id="clip40_187_4995">
<rect width="100" height="100" fill="white" transform="translate(600 500)"/>
</clipPath>
<clipPath id="clip41_187_4995">
<rect width="100" height="100" fill="white" transform="translate(1000 500)"/>
</clipPath>
<clipPath id="clip42_187_4995">
<rect width="100" height="100" fill="white" transform="translate(1400 500)"/>
</clipPath>
<clipPath id="clip43_187_4995">
<rect width="100" height="100" fill="white" transform="translate(1800 500)"/>
</clipPath>
<clipPath id="clip44_187_4995">
<rect width="100" height="100" fill="white" transform="translate(2200 500)"/>
</clipPath>
<clipPath id="clip45_187_4995">
<rect width="100" height="100" fill="white" transform="translate(100 900)"/>
</clipPath>
<clipPath id="clip46_187_4995">
<rect width="100" height="100" fill="white" transform="translate(700 900)"/>
</clipPath>
<clipPath id="clip47_187_4995">
<rect width="100" height="100" fill="white" transform="translate(900 900)"/>
</clipPath>
<clipPath id="clip48_187_4995">
<rect width="100" height="100" fill="white" transform="translate(1500 900)"/>
</clipPath>
<clipPath id="clip49_187_4995">
<rect width="100" height="100" fill="white" transform="translate(1700 900)"/>
</clipPath>
<clipPath id="clip50_187_4995">
<rect width="100" height="100" fill="white" transform="translate(2300 900)"/>
</clipPath>
<clipPath id="clip51_187_4995">
<rect width="100" height="100" fill="white" transform="translate(300 300)"/>
</clipPath>
<clipPath id="clip52_187_4995">
<rect width="100" height="100" fill="white" transform="translate(500 300)"/>
</clipPath>
<clipPath id="clip53_187_4995">
<rect width="100" height="100" fill="white" transform="translate(1100 300)"/>
</clipPath>
<clipPath id="clip54_187_4995">
<rect width="100" height="100" fill="white" transform="translate(1300 300)"/>
</clipPath>
<clipPath id="clip55_187_4995">
<rect width="100" height="100" fill="white" transform="translate(1900 300)"/>
</clipPath>
<clipPath id="clip56_187_4995">
<rect width="100" height="100" fill="white" transform="translate(2100 300)"/>
</clipPath>
<clipPath id="clip57_187_4995">
<rect width="100" height="100" fill="white" transform="translate(200 700)"/>
</clipPath>
<clipPath id="clip58_187_4995">
<rect width="100" height="100" fill="white" transform="translate(600 700)"/>
</clipPath>
<clipPath id="clip59_187_4995">
<rect width="100" height="100" fill="white" transform="translate(1000 700)"/>
</clipPath>
<clipPath id="clip60_187_4995">
<rect width="100" height="100" fill="white" transform="translate(1400 700)"/>
</clipPath>
<clipPath id="clip61_187_4995">
<rect width="100" height="100" fill="white" transform="translate(1800 700)"/>
</clipPath>
<clipPath id="clip62_187_4995">
<rect width="100" height="100" fill="white" transform="translate(2200 700)"/>
</clipPath>
<clipPath id="clip63_187_4995">
<rect width="100" height="100" fill="white" transform="translate(0 1100)"/>
</clipPath>
<clipPath id="clip64_187_4995">
<rect width="100" height="100" fill="white" transform="translate(800 1100)"/>
</clipPath>
<clipPath id="clip65_187_4995">
<rect width="100" height="100" fill="white" transform="translate(1600 1100)"/>
</clipPath>
</defs>
</svg>
