<svg width="2400" height="1200" viewBox="0 0 2400 1200" fill="none" xmlns="http://www.w3.org/2000/svg">
<circle cx="50" cy="50" r="5" fill="white"/>
<circle cx="185.294" cy="50" r="10" fill="white"/>
<circle cx="320.588" cy="50" r="20" fill="white"/>
<g clip-path="url(#clip0_238_6695)">
<circle cx="455.883" cy="50" r="50" fill="white"/>
</g>
<circle cx="591.177" cy="50" r="20" fill="white"/>
<circle cx="726.471" cy="50" r="10" fill="white"/>
<circle cx="861.765" cy="50" r="5" fill="white"/>
<circle cx="997.059" cy="50" r="10" fill="white"/>
<circle cx="1132.35" cy="50" r="20" fill="white"/>
<g clip-path="url(#clip1_238_6695)">
<circle cx="1267.65" cy="50" r="50" fill="white"/>
</g>
<circle cx="1402.94" cy="50" r="20" fill="white"/>
<circle cx="1538.24" cy="50" r="10" fill="white"/>
<circle cx="1673.53" cy="50" r="5" fill="white"/>
<circle cx="1808.82" cy="50" r="10" fill="white"/>
<circle cx="1944.12" cy="50" r="20" fill="white"/>
<g clip-path="url(#clip2_238_6695)">
<circle cx="2079.41" cy="50" r="50" fill="white"/>
</g>
<circle cx="2214.71" cy="50" r="20" fill="white"/>
<circle cx="2350" cy="50" r="10" fill="white"/>
<circle cx="50" cy="187.5" r="10" fill="white"/>
<circle cx="185.294" cy="187.5" r="20" fill="white"/>
<g clip-path="url(#clip3_238_6695)">
<circle cx="320.588" cy="187.5" r="50" fill="white"/>
</g>
<circle cx="455.883" cy="187.5" r="20" fill="white"/>
<g clip-path="url(#clip4_238_6695)">
<circle cx="591.177" cy="187.5" r="50" fill="white"/>
</g>
<circle cx="726.471" cy="187.5" r="20" fill="white"/>
<circle cx="861.765" cy="187.5" r="10" fill="white"/>
<circle cx="997.059" cy="187.5" r="20" fill="white"/>
<g clip-path="url(#clip5_238_6695)">
<circle cx="1132.35" cy="187.5" r="50" fill="white"/>
</g>
<circle cx="1267.65" cy="187.5" r="20" fill="white"/>
<g clip-path="url(#clip6_238_6695)">
<circle cx="1402.94" cy="187.5" r="50" fill="white"/>
</g>
<circle cx="1538.24" cy="187.5" r="20" fill="white"/>
<circle cx="1673.53" cy="187.5" r="10" fill="white"/>
<circle cx="1808.82" cy="187.5" r="20" fill="white"/>
<g clip-path="url(#clip7_238_6695)">
<circle cx="1944.12" cy="187.5" r="50" fill="white"/>
</g>
<circle cx="2079.41" cy="187.5" r="20" fill="white"/>
<g clip-path="url(#clip8_238_6695)">
<circle cx="2214.71" cy="187.5" r="50" fill="white"/>
</g>
<circle cx="2350" cy="187.5" r="20" fill="white"/>
<circle cx="50" cy="325" r="10" fill="white"/>
<circle cx="185.294" cy="325" r="20" fill="white"/>
<g clip-path="url(#clip9_238_6695)">
<circle cx="320.588" cy="325" r="50" fill="white"/>
</g>
<circle cx="455.883" cy="325" r="20" fill="white"/>
<g clip-path="url(#clip10_238_6695)">
<circle cx="591.177" cy="325" r="50" fill="white"/>
</g>
<circle cx="726.471" cy="325" r="20" fill="white"/>
<circle cx="861.765" cy="325" r="10" fill="white"/>
<circle cx="997.059" cy="325" r="20" fill="white"/>
<g clip-path="url(#clip11_238_6695)">
<circle cx="1132.35" cy="325" r="50" fill="white"/>
</g>
<circle cx="1267.65" cy="325" r="20" fill="white"/>
<g clip-path="url(#clip12_238_6695)">
<circle cx="1402.94" cy="325" r="50" fill="white"/>
</g>
<circle cx="1538.24" cy="325" r="20" fill="white"/>
<circle cx="1673.53" cy="325" r="10" fill="white"/>
<circle cx="1808.82" cy="325" r="20" fill="white"/>
<g clip-path="url(#clip13_238_6695)">
<circle cx="1944.12" cy="325" r="50" fill="white"/>
</g>
<circle cx="2079.41" cy="325" r="20" fill="white"/>
<g clip-path="url(#clip14_238_6695)">
<circle cx="2214.71" cy="325" r="50" fill="white"/>
</g>
<circle cx="2350" cy="325" r="20" fill="white"/>
<circle cx="50" cy="462.5" r="10" fill="white"/>
<circle cx="185.294" cy="462.5" r="20" fill="white"/>
<g clip-path="url(#clip15_238_6695)">
<circle cx="320.588" cy="462.5" r="50" fill="white"/>
</g>
<circle cx="455.883" cy="462.5" r="20" fill="white"/>
<g clip-path="url(#clip16_238_6695)">
<circle cx="591.177" cy="462.5" r="50" fill="white"/>
</g>
<circle cx="726.471" cy="462.5" r="20" fill="white"/>
<circle cx="861.765" cy="462.5" r="10" fill="white"/>
<circle cx="997.059" cy="462.5" r="20" fill="white"/>
<g clip-path="url(#clip17_238_6695)">
<circle cx="1132.35" cy="462.5" r="50" fill="white"/>
</g>
<circle cx="1267.65" cy="462.5" r="20" fill="white"/>
<g clip-path="url(#clip18_238_6695)">
<circle cx="1402.94" cy="462.5" r="50" fill="white"/>
</g>
<circle cx="1538.24" cy="462.5" r="20" fill="white"/>
<circle cx="1673.53" cy="462.5" r="10" fill="white"/>
<circle cx="1808.82" cy="462.5" r="20" fill="white"/>
<g clip-path="url(#clip19_238_6695)">
<circle cx="1944.12" cy="462.5" r="50" fill="white"/>
</g>
<circle cx="2079.41" cy="462.5" r="20" fill="white"/>
<g clip-path="url(#clip20_238_6695)">
<circle cx="2214.71" cy="462.5" r="50" fill="white"/>
</g>
<circle cx="2350" cy="462.5" r="20" fill="white"/>
<circle cx="50" cy="600" r="20" fill="white"/>
<g clip-path="url(#clip21_238_6695)">
<circle cx="185.294" cy="600" r="50" fill="white"/>
</g>
<circle cx="320.588" cy="600" r="20" fill="white"/>
<circle cx="455.883" cy="600" r="10" fill="white"/>
<circle cx="591.177" cy="600" r="20" fill="white"/>
<g clip-path="url(#clip22_238_6695)">
<circle cx="726.471" cy="600" r="50" fill="white"/>
</g>
<circle cx="861.765" cy="600" r="20" fill="white"/>
<g clip-path="url(#clip23_238_6695)">
<circle cx="997.059" cy="600" r="50" fill="white"/>
</g>
<circle cx="1132.35" cy="600" r="20" fill="white"/>
<circle cx="1267.65" cy="600" r="10" fill="white"/>
<circle cx="1402.94" cy="600" r="20" fill="white"/>
<g clip-path="url(#clip24_238_6695)">
<circle cx="1538.24" cy="600" r="50" fill="white"/>
</g>
<circle cx="1673.53" cy="600" r="20" fill="white"/>
<g clip-path="url(#clip25_238_6695)">
<circle cx="1808.82" cy="600" r="50" fill="white"/>
</g>
<circle cx="1944.12" cy="600" r="20" fill="white"/>
<circle cx="2079.41" cy="600" r="10" fill="white"/>
<circle cx="2214.71" cy="600" r="20" fill="white"/>
<g clip-path="url(#clip26_238_6695)">
<circle cx="2350" cy="600" r="50" fill="white"/>
</g>
<circle cx="50" cy="737.5" r="20" fill="white"/>
<g clip-path="url(#clip27_238_6695)">
<circle cx="185.294" cy="737.5" r="50" fill="white"/>
</g>
<circle cx="320.588" cy="737.5" r="20" fill="white"/>
<circle cx="455.883" cy="737.5" r="10" fill="white"/>
<circle cx="591.177" cy="737.5" r="20" fill="white"/>
<g clip-path="url(#clip28_238_6695)">
<circle cx="726.471" cy="737.5" r="50" fill="white"/>
</g>
<circle cx="861.765" cy="737.5" r="20" fill="white"/>
<g clip-path="url(#clip29_238_6695)">
<circle cx="997.059" cy="737.5" r="50" fill="white"/>
</g>
<circle cx="1132.35" cy="737.5" r="20" fill="white"/>
<circle cx="1267.65" cy="737.5" r="10" fill="white"/>
<circle cx="1402.94" cy="737.5" r="20" fill="white"/>
<g clip-path="url(#clip30_238_6695)">
<circle cx="1538.24" cy="737.5" r="50" fill="white"/>
</g>
<circle cx="1673.53" cy="737.5" r="20" fill="white"/>
<g clip-path="url(#clip31_238_6695)">
<circle cx="1808.82" cy="737.5" r="50" fill="white"/>
</g>
<circle cx="1944.12" cy="737.5" r="20" fill="white"/>
<circle cx="2079.41" cy="737.5" r="10" fill="white"/>
<circle cx="2214.71" cy="737.5" r="20" fill="white"/>
<g clip-path="url(#clip32_238_6695)">
<circle cx="2350" cy="737.5" r="50" fill="white"/>
</g>
<circle cx="50" cy="875" r="20" fill="white"/>
<g clip-path="url(#clip33_238_6695)">
<circle cx="185.294" cy="875" r="50" fill="white"/>
</g>
<circle cx="320.588" cy="875" r="20" fill="white"/>
<circle cx="455.883" cy="875" r="10" fill="white"/>
<circle cx="591.177" cy="875" r="20" fill="white"/>
<g clip-path="url(#clip34_238_6695)">
<circle cx="726.471" cy="875" r="50" fill="white"/>
</g>
<circle cx="861.765" cy="875" r="20" fill="white"/>
<g clip-path="url(#clip35_238_6695)">
<circle cx="997.059" cy="875" r="50" fill="white"/>
</g>
<circle cx="1132.35" cy="875" r="20" fill="white"/>
<circle cx="1267.65" cy="875" r="10" fill="white"/>
<circle cx="1402.94" cy="875" r="20" fill="white"/>
<g clip-path="url(#clip36_238_6695)">
<circle cx="1538.24" cy="875" r="50" fill="white"/>
</g>
<circle cx="1673.53" cy="875" r="20" fill="white"/>
<g clip-path="url(#clip37_238_6695)">
<circle cx="1808.82" cy="875" r="50" fill="white"/>
</g>
<circle cx="1944.12" cy="875" r="20" fill="white"/>
<circle cx="2079.41" cy="875" r="10" fill="white"/>
<circle cx="2214.71" cy="875" r="20" fill="white"/>
<g clip-path="url(#clip38_238_6695)">
<circle cx="2350" cy="875" r="50" fill="white"/>
</g>
<circle cx="50" cy="1012.5" r="20" fill="white"/>
<g clip-path="url(#clip39_238_6695)">
<circle cx="185.294" cy="1012.5" r="50" fill="white"/>
</g>
<circle cx="320.588" cy="1012.5" r="20" fill="white"/>
<circle cx="455.883" cy="1012.5" r="10" fill="white"/>
<circle cx="591.177" cy="1012.5" r="20" fill="white"/>
<g clip-path="url(#clip40_238_6695)">
<circle cx="726.471" cy="1012.5" r="50" fill="white"/>
</g>
<circle cx="861.765" cy="1012.5" r="20" fill="white"/>
<g clip-path="url(#clip41_238_6695)">
<circle cx="997.059" cy="1012.5" r="50" fill="white"/>
</g>
<circle cx="1132.35" cy="1012.5" r="20" fill="white"/>
<circle cx="1267.65" cy="1012.5" r="10" fill="white"/>
<circle cx="1402.94" cy="1012.5" r="20" fill="white"/>
<g clip-path="url(#clip42_238_6695)">
<circle cx="1538.24" cy="1012.5" r="50" fill="white"/>
</g>
<circle cx="1673.53" cy="1012.5" r="20" fill="white"/>
<g clip-path="url(#clip43_238_6695)">
<circle cx="1808.82" cy="1012.5" r="50" fill="white"/>
</g>
<circle cx="1944.12" cy="1012.5" r="20" fill="white"/>
<circle cx="2079.41" cy="1012.5" r="10" fill="white"/>
<circle cx="2214.71" cy="1012.5" r="20" fill="white"/>
<g clip-path="url(#clip44_238_6695)">
<circle cx="2350" cy="1012.5" r="50" fill="white"/>
</g>
<g clip-path="url(#clip45_238_6695)">
<circle cx="50" cy="1150" r="50" fill="white"/>
</g>
<circle cx="185.294" cy="1150" r="20" fill="white"/>
<circle cx="320.588" cy="1150" r="10" fill="white"/>
<circle cx="455.883" cy="1150" r="5" fill="white"/>
<circle cx="591.177" cy="1150" r="10" fill="white"/>
<circle cx="726.471" cy="1150" r="20" fill="white"/>
<g clip-path="url(#clip46_238_6695)">
<circle cx="861.765" cy="1150" r="50" fill="white"/>
</g>
<circle cx="997.059" cy="1150" r="20" fill="white"/>
<circle cx="1132.35" cy="1150" r="10" fill="white"/>
<circle cx="1267.65" cy="1150" r="5" fill="white"/>
<circle cx="1402.94" cy="1150" r="10" fill="white"/>
<circle cx="1538.24" cy="1150" r="20" fill="white"/>
<g clip-path="url(#clip47_238_6695)">
<circle cx="1673.53" cy="1150" r="50" fill="white"/>
</g>
<circle cx="1808.82" cy="1150" r="20" fill="white"/>
<circle cx="1944.12" cy="1150" r="10" fill="white"/>
<circle cx="2079.41" cy="1150" r="5" fill="white"/>
<circle cx="2214.71" cy="1150" r="10" fill="white"/>
<circle cx="2350" cy="1150" r="20" fill="white"/>
<defs>
<clipPath id="clip0_238_6695">
<rect width="100" height="100" fill="white" transform="translate(405.883)"/>
</clipPath>
<clipPath id="clip1_238_6695">
<rect width="100" height="100" fill="white" transform="translate(1217.65)"/>
</clipPath>
<clipPath id="clip2_238_6695">
<rect width="100" height="100" fill="white" transform="translate(2029.41)"/>
</clipPath>
<clipPath id="clip3_238_6695">
<rect width="100" height="100" fill="white" transform="translate(270.588 137.5)"/>
</clipPath>
<clipPath id="clip4_238_6695">
<rect width="100" height="100" fill="white" transform="translate(541.177 137.5)"/>
</clipPath>
<clipPath id="clip5_238_6695">
<rect width="100" height="100" fill="white" transform="translate(1082.35 137.5)"/>
</clipPath>
<clipPath id="clip6_238_6695">
<rect width="100" height="100" fill="white" transform="translate(1352.94 137.5)"/>
</clipPath>
<clipPath id="clip7_238_6695">
<rect width="100" height="100" fill="white" transform="translate(1894.12 137.5)"/>
</clipPath>
<clipPath id="clip8_238_6695">
<rect width="100" height="100" fill="white" transform="translate(2164.71 137.5)"/>
</clipPath>
<clipPath id="clip9_238_6695">
<rect width="100" height="100" fill="white" transform="translate(270.588 275)"/>
</clipPath>
<clipPath id="clip10_238_6695">
<rect width="100" height="100" fill="white" transform="translate(541.177 275)"/>
</clipPath>
<clipPath id="clip11_238_6695">
<rect width="100" height="100" fill="white" transform="translate(1082.35 275)"/>
</clipPath>
<clipPath id="clip12_238_6695">
<rect width="100" height="100" fill="white" transform="translate(1352.94 275)"/>
</clipPath>
<clipPath id="clip13_238_6695">
<rect width="100" height="100" fill="white" transform="translate(1894.12 275)"/>
</clipPath>
<clipPath id="clip14_238_6695">
<rect width="100" height="100" fill="white" transform="translate(2164.71 275)"/>
</clipPath>
<clipPath id="clip15_238_6695">
<rect width="100" height="100" fill="white" transform="translate(270.588 412.5)"/>
</clipPath>
<clipPath id="clip16_238_6695">
<rect width="100" height="100" fill="white" transform="translate(541.177 412.5)"/>
</clipPath>
<clipPath id="clip17_238_6695">
<rect width="100" height="100" fill="white" transform="translate(1082.35 412.5)"/>
</clipPath>
<clipPath id="clip18_238_6695">
<rect width="100" height="100" fill="white" transform="translate(1352.94 412.5)"/>
</clipPath>
<clipPath id="clip19_238_6695">
<rect width="100" height="100" fill="white" transform="translate(1894.12 412.5)"/>
</clipPath>
<clipPath id="clip20_238_6695">
<rect width="100" height="100" fill="white" transform="translate(2164.71 412.5)"/>
</clipPath>
<clipPath id="clip21_238_6695">
<rect width="100" height="100" fill="white" transform="translate(135.294 550)"/>
</clipPath>
<clipPath id="clip22_238_6695">
<rect width="100" height="100" fill="white" transform="translate(676.471 550)"/>
</clipPath>
<clipPath id="clip23_238_6695">
<rect width="100" height="100" fill="white" transform="translate(947.059 550)"/>
</clipPath>
<clipPath id="clip24_238_6695">
<rect width="100" height="100" fill="white" transform="translate(1488.24 550)"/>
</clipPath>
<clipPath id="clip25_238_6695">
<rect width="100" height="100" fill="white" transform="translate(1758.82 550)"/>
</clipPath>
<clipPath id="clip26_238_6695">
<rect width="100" height="100" fill="white" transform="translate(2300 550)"/>
</clipPath>
<clipPath id="clip27_238_6695">
<rect width="100" height="100" fill="white" transform="translate(135.294 687.5)"/>
</clipPath>
<clipPath id="clip28_238_6695">
<rect width="100" height="100" fill="white" transform="translate(676.471 687.5)"/>
</clipPath>
<clipPath id="clip29_238_6695">
<rect width="100" height="100" fill="white" transform="translate(947.059 687.5)"/>
</clipPath>
<clipPath id="clip30_238_6695">
<rect width="100" height="100" fill="white" transform="translate(1488.24 687.5)"/>
</clipPath>
<clipPath id="clip31_238_6695">
<rect width="100" height="100" fill="white" transform="translate(1758.82 687.5)"/>
</clipPath>
<clipPath id="clip32_238_6695">
<rect width="100" height="100" fill="white" transform="translate(2300 687.5)"/>
</clipPath>
<clipPath id="clip33_238_6695">
<rect width="100" height="100" fill="white" transform="translate(135.294 825)"/>
</clipPath>
<clipPath id="clip34_238_6695">
<rect width="100" height="100" fill="white" transform="translate(676.471 825)"/>
</clipPath>
<clipPath id="clip35_238_6695">
<rect width="100" height="100" fill="white" transform="translate(947.059 825)"/>
</clipPath>
<clipPath id="clip36_238_6695">
<rect width="100" height="100" fill="white" transform="translate(1488.24 825)"/>
</clipPath>
<clipPath id="clip37_238_6695">
<rect width="100" height="100" fill="white" transform="translate(1758.82 825)"/>
</clipPath>
<clipPath id="clip38_238_6695">
<rect width="100" height="100" fill="white" transform="translate(2300 825)"/>
</clipPath>
<clipPath id="clip39_238_6695">
<rect width="100" height="100" fill="white" transform="translate(135.294 962.5)"/>
</clipPath>
<clipPath id="clip40_238_6695">
<rect width="100" height="100" fill="white" transform="translate(676.471 962.5)"/>
</clipPath>
<clipPath id="clip41_238_6695">
<rect width="100" height="100" fill="white" transform="translate(947.059 962.5)"/>
</clipPath>
<clipPath id="clip42_238_6695">
<rect width="100" height="100" fill="white" transform="translate(1488.24 962.5)"/>
</clipPath>
<clipPath id="clip43_238_6695">
<rect width="100" height="100" fill="white" transform="translate(1758.82 962.5)"/>
</clipPath>
<clipPath id="clip44_238_6695">
<rect width="100" height="100" fill="white" transform="translate(2300 962.5)"/>
</clipPath>
<clipPath id="clip45_238_6695">
<rect width="100" height="100" fill="white" transform="translate(0 1100)"/>
</clipPath>
<clipPath id="clip46_238_6695">
<rect width="100" height="100" fill="white" transform="translate(811.765 1100)"/>
</clipPath>
<clipPath id="clip47_238_6695">
<rect width="100" height="100" fill="white" transform="translate(1623.53 1100)"/>
</clipPath>
</defs>
</svg>
