<svg width="2400" height="1200" viewBox="0 0 2400 1200" fill="none" xmlns="http://www.w3.org/2000/svg">
<circle cx="50" cy="50" r="5" fill="white"/>
<circle cx="259.091" cy="50" r="10" fill="white"/>
<circle cx="468.182" cy="50" r="20" fill="white"/>
<g clip-path="url(#clip0_238_7350)">
<circle cx="677.272" cy="50" r="50" fill="white"/>
</g>
<circle cx="886.363" cy="50" r="20" fill="white"/>
<circle cx="1095.46" cy="50" r="10" fill="white"/>
<circle cx="1304.55" cy="50" r="5" fill="white"/>
<circle cx="1513.64" cy="50" r="10" fill="white"/>
<circle cx="1722.73" cy="50" r="20" fill="white"/>
<g clip-path="url(#clip1_238_7350)">
<circle cx="1931.82" cy="50" r="50" fill="white"/>
</g>
<circle cx="2140.91" cy="50" r="20" fill="white"/>
<circle cx="2350" cy="50" r="10" fill="white"/>
<circle cx="50" cy="270" r="10" fill="white"/>
<circle cx="259.091" cy="270" r="20" fill="white"/>
<g clip-path="url(#clip2_238_7350)">
<circle cx="468.182" cy="270" r="50" fill="white"/>
</g>
<circle cx="677.272" cy="270" r="20" fill="white"/>
<g clip-path="url(#clip3_238_7350)">
<circle cx="886.363" cy="270" r="50" fill="white"/>
</g>
<circle cx="1095.46" cy="270" r="20" fill="white"/>
<circle cx="1304.55" cy="270" r="10" fill="white"/>
<circle cx="1513.64" cy="270" r="20" fill="white"/>
<g clip-path="url(#clip4_238_7350)">
<circle cx="1722.73" cy="270" r="50" fill="white"/>
</g>
<circle cx="1931.82" cy="270" r="20" fill="white"/>
<g clip-path="url(#clip5_238_7350)">
<circle cx="2140.91" cy="270" r="50" fill="white"/>
</g>
<circle cx="2350" cy="270" r="20" fill="white"/>
<circle cx="50" cy="490" r="10" fill="white"/>
<circle cx="259.091" cy="490" r="20" fill="white"/>
<g clip-path="url(#clip6_238_7350)">
<circle cx="468.182" cy="490" r="50" fill="white"/>
</g>
<circle cx="677.272" cy="490" r="20" fill="white"/>
<g clip-path="url(#clip7_238_7350)">
<circle cx="886.363" cy="490" r="50" fill="white"/>
</g>
<circle cx="1095.46" cy="490" r="20" fill="white"/>
<circle cx="1304.55" cy="490" r="10" fill="white"/>
<circle cx="1513.64" cy="490" r="20" fill="white"/>
<g clip-path="url(#clip8_238_7350)">
<circle cx="1722.73" cy="490" r="50" fill="white"/>
</g>
<circle cx="1931.82" cy="490" r="20" fill="white"/>
<g clip-path="url(#clip9_238_7350)">
<circle cx="2140.91" cy="490" r="50" fill="white"/>
</g>
<circle cx="2350" cy="490" r="20" fill="white"/>
<circle cx="50" cy="710" r="20" fill="white"/>
<g clip-path="url(#clip10_238_7350)">
<circle cx="259.091" cy="710" r="50" fill="white"/>
</g>
<circle cx="468.182" cy="710" r="20" fill="white"/>
<circle cx="677.272" cy="710" r="10" fill="white"/>
<circle cx="886.363" cy="710" r="20" fill="white"/>
<g clip-path="url(#clip11_238_7350)">
<circle cx="1095.46" cy="710" r="50" fill="white"/>
</g>
<circle cx="1304.55" cy="710" r="20" fill="white"/>
<g clip-path="url(#clip12_238_7350)">
<circle cx="1513.64" cy="710" r="50" fill="white"/>
</g>
<circle cx="1722.73" cy="710" r="20" fill="white"/>
<circle cx="1931.82" cy="710" r="10" fill="white"/>
<circle cx="2140.91" cy="710" r="20" fill="white"/>
<g clip-path="url(#clip13_238_7350)">
<circle cx="2350" cy="710" r="50" fill="white"/>
</g>
<circle cx="50" cy="930" r="20" fill="white"/>
<g clip-path="url(#clip14_238_7350)">
<circle cx="259.091" cy="930" r="50" fill="white"/>
</g>
<circle cx="468.182" cy="930" r="20" fill="white"/>
<circle cx="677.272" cy="930" r="10" fill="white"/>
<circle cx="886.363" cy="930" r="20" fill="white"/>
<g clip-path="url(#clip15_238_7350)">
<circle cx="1095.46" cy="930" r="50" fill="white"/>
</g>
<circle cx="1304.55" cy="930" r="20" fill="white"/>
<g clip-path="url(#clip16_238_7350)">
<circle cx="1513.64" cy="930" r="50" fill="white"/>
</g>
<circle cx="1722.73" cy="930" r="20" fill="white"/>
<circle cx="1931.82" cy="930" r="10" fill="white"/>
<circle cx="2140.91" cy="930" r="20" fill="white"/>
<g clip-path="url(#clip17_238_7350)">
<circle cx="2350" cy="930" r="50" fill="white"/>
</g>
<g clip-path="url(#clip18_238_7350)">
<circle cx="50" cy="1150" r="50" fill="white"/>
</g>
<circle cx="259.091" cy="1150" r="20" fill="white"/>
<circle cx="468.182" cy="1150" r="10" fill="white"/>
<circle cx="677.272" cy="1150" r="5" fill="white"/>
<circle cx="886.363" cy="1150" r="10" fill="white"/>
<circle cx="1095.46" cy="1150" r="20" fill="white"/>
<g clip-path="url(#clip19_238_7350)">
<circle cx="1304.55" cy="1150" r="50" fill="white"/>
</g>
<circle cx="1513.64" cy="1150" r="20" fill="white"/>
<circle cx="1722.73" cy="1150" r="10" fill="white"/>
<circle cx="1931.82" cy="1150" r="5" fill="white"/>
<circle cx="2140.91" cy="1150" r="10" fill="white"/>
<circle cx="2350" cy="1150" r="20" fill="white"/>
<defs>
<clipPath id="clip0_238_7350">
<rect width="100" height="100" fill="white" transform="translate(627.272)"/>
</clipPath>
<clipPath id="clip1_238_7350">
<rect width="100" height="100" fill="white" transform="translate(1881.82)"/>
</clipPath>
<clipPath id="clip2_238_7350">
<rect width="100" height="100" fill="white" transform="translate(418.182 220)"/>
</clipPath>
<clipPath id="clip3_238_7350">
<rect width="100" height="100" fill="white" transform="translate(836.363 220)"/>
</clipPath>
<clipPath id="clip4_238_7350">
<rect width="100" height="100" fill="white" transform="translate(1672.73 220)"/>
</clipPath>
<clipPath id="clip5_238_7350">
<rect width="100" height="100" fill="white" transform="translate(2090.91 220)"/>
</clipPath>
<clipPath id="clip6_238_7350">
<rect width="100" height="100" fill="white" transform="translate(418.182 440)"/>
</clipPath>
<clipPath id="clip7_238_7350">
<rect width="100" height="100" fill="white" transform="translate(836.363 440)"/>
</clipPath>
<clipPath id="clip8_238_7350">
<rect width="100" height="100" fill="white" transform="translate(1672.73 440)"/>
</clipPath>
<clipPath id="clip9_238_7350">
<rect width="100" height="100" fill="white" transform="translate(2090.91 440)"/>
</clipPath>
<clipPath id="clip10_238_7350">
<rect width="100" height="100" fill="white" transform="translate(209.091 660)"/>
</clipPath>
<clipPath id="clip11_238_7350">
<rect width="100" height="100" fill="white" transform="translate(1045.46 660)"/>
</clipPath>
<clipPath id="clip12_238_7350">
<rect width="100" height="100" fill="white" transform="translate(1463.64 660)"/>
</clipPath>
<clipPath id="clip13_238_7350">
<rect width="100" height="100" fill="white" transform="translate(2300 660)"/>
</clipPath>
<clipPath id="clip14_238_7350">
<rect width="100" height="100" fill="white" transform="translate(209.091 880)"/>
</clipPath>
<clipPath id="clip15_238_7350">
<rect width="100" height="100" fill="white" transform="translate(1045.46 880)"/>
</clipPath>
<clipPath id="clip16_238_7350">
<rect width="100" height="100" fill="white" transform="translate(1463.64 880)"/>
</clipPath>
<clipPath id="clip17_238_7350">
<rect width="100" height="100" fill="white" transform="translate(2300 880)"/>
</clipPath>
<clipPath id="clip18_238_7350">
<rect width="100" height="100" fill="white" transform="translate(0 1100)"/>
</clipPath>
<clipPath id="clip19_238_7350">
<rect width="100" height="100" fill="white" transform="translate(1254.55 1100)"/>
</clipPath>
</defs>
</svg>
