<svg width="2011" height="1000" viewBox="0 0 2011 1000" fill="none" xmlns="http://www.w3.org/2000/svg">
<circle cx="50" cy="50" r="5" fill="white"/>
<circle cx="150" cy="50" r="5" fill="white"/>
<circle cx="250" cy="50" r="10" fill="white"/>
<circle cx="350" cy="50" r="5" fill="white"/>
<circle cx="450" cy="50" r="5" fill="white"/>
<circle cx="550" cy="50" r="5" fill="white"/>
<circle cx="650" cy="50" r="5" fill="white"/>
<circle cx="750" cy="50" r="5" fill="white"/>
<circle cx="850" cy="50" r="5" fill="white"/>
<circle cx="950" cy="50" r="5" fill="white"/>
<circle cx="1050" cy="50" r="5" fill="white"/>
<circle cx="1150" cy="50" r="5" fill="white"/>
<circle cx="1250" cy="50" r="10" fill="white"/>
<circle cx="1350" cy="50" r="5" fill="white"/>
<circle cx="1450" cy="50" r="5" fill="white"/>
<circle cx="1550" cy="50" r="5" fill="white"/>
<circle cx="1650" cy="50" r="5" fill="white"/>
<circle cx="1750" cy="50" r="5" fill="white"/>
<circle cx="1850" cy="50" r="5" fill="white"/>
<circle cx="1950" cy="50" r="5" fill="white"/>
<circle cx="51" cy="150" r="5" fill="white"/>
<circle cx="151" cy="150" r="20" fill="white"/>
<circle cx="251" cy="150" r="40" fill="white"/>
<circle cx="351" cy="150" r="20" fill="white"/>
<circle cx="451" cy="150" r="5" fill="white"/>
<circle cx="551" cy="150" r="5" fill="white"/>
<circle cx="651" cy="150" r="10" fill="white"/>
<circle cx="751" cy="150" r="20" fill="white"/>
<circle cx="851" cy="150" r="10" fill="white"/>
<circle cx="951" cy="150" r="5" fill="white"/>
<circle cx="1051" cy="150" r="5" fill="white"/>
<circle cx="1151" cy="150" r="20" fill="white"/>
<circle cx="1251" cy="150" r="40" fill="white"/>
<circle cx="1351" cy="150" r="20" fill="white"/>
<circle cx="1451" cy="150" r="5" fill="white"/>
<circle cx="1551" cy="150" r="5" fill="white"/>
<circle cx="1651" cy="150" r="10" fill="white"/>
<circle cx="1751" cy="150" r="20" fill="white"/>
<circle cx="1851" cy="150" r="10" fill="white"/>
<circle cx="1951" cy="150" r="5" fill="white"/>
<circle cx="51" cy="250" r="10" fill="white"/>
<circle cx="151" cy="250" r="40" fill="white"/>
<g clip-path="url(#clip0_136_4268)">
<circle cx="251" cy="250" r="50" fill="white"/>
</g>
<circle cx="351" cy="250" r="40" fill="white"/>
<circle cx="451" cy="250" r="10" fill="white"/>
<circle cx="551" cy="250" r="5" fill="white"/>
<circle cx="651" cy="250" r="20" fill="white"/>
<circle cx="751" cy="250" r="30" fill="white"/>
<circle cx="851" cy="250" r="20" fill="white"/>
<circle cx="951" cy="250" r="5" fill="white"/>
<circle cx="1051" cy="250" r="10" fill="white"/>
<circle cx="1151" cy="250" r="40" fill="white"/>
<g clip-path="url(#clip1_136_4268)">
<circle cx="1251" cy="250" r="50" fill="white"/>
</g>
<circle cx="1351" cy="250" r="40" fill="white"/>
<circle cx="1451" cy="250" r="10" fill="white"/>
<circle cx="1551" cy="250" r="5" fill="white"/>
<circle cx="1651" cy="250" r="20" fill="white"/>
<circle cx="1751" cy="250" r="30" fill="white"/>
<circle cx="1851" cy="250" r="20" fill="white"/>
<circle cx="1951" cy="250" r="5" fill="white"/>
<circle cx="51" cy="350" r="5" fill="white"/>
<circle cx="151" cy="350" r="20" fill="white"/>
<circle cx="251" cy="350" r="40" fill="white"/>
<circle cx="351" cy="350" r="20" fill="white"/>
<circle cx="451" cy="350" r="5" fill="white"/>
<circle cx="551" cy="350" r="5" fill="white"/>
<circle cx="651" cy="350" r="10" fill="white"/>
<circle cx="751" cy="350" r="20" fill="white"/>
<circle cx="851" cy="350" r="10" fill="white"/>
<circle cx="951" cy="350" r="5" fill="white"/>
<circle cx="1051" cy="350" r="5" fill="white"/>
<circle cx="1151" cy="350" r="20" fill="white"/>
<circle cx="1251" cy="350" r="40" fill="white"/>
<circle cx="1351" cy="350" r="20" fill="white"/>
<circle cx="1451" cy="350" r="5" fill="white"/>
<circle cx="1551" cy="350" r="5" fill="white"/>
<circle cx="1651" cy="350" r="10" fill="white"/>
<circle cx="1751" cy="350" r="20" fill="white"/>
<circle cx="1851" cy="350" r="10" fill="white"/>
<circle cx="1951" cy="350" r="5" fill="white"/>
<circle cx="51" cy="450" r="5" fill="white"/>
<circle cx="151" cy="450" r="5" fill="white"/>
<circle cx="251" cy="450" r="10" fill="white"/>
<circle cx="351" cy="450" r="5" fill="white"/>
<circle cx="451" cy="450" r="5" fill="white"/>
<circle cx="551" cy="450" r="5" fill="white"/>
<circle cx="651" cy="450" r="5" fill="white"/>
<circle cx="751" cy="450" r="5" fill="white"/>
<circle cx="851" cy="450" r="5" fill="white"/>
<circle cx="951" cy="450" r="5" fill="white"/>
<circle cx="1051" cy="450" r="5" fill="white"/>
<circle cx="1151" cy="450" r="5" fill="white"/>
<circle cx="1251" cy="450" r="10" fill="white"/>
<circle cx="1351" cy="450" r="5" fill="white"/>
<circle cx="1451" cy="450" r="5" fill="white"/>
<circle cx="1551" cy="450" r="5" fill="white"/>
<circle cx="1651" cy="450" r="5" fill="white"/>
<circle cx="1751" cy="450" r="5" fill="white"/>
<circle cx="1851" cy="450" r="5" fill="white"/>
<circle cx="1951" cy="450" r="5" fill="white"/>
<circle cx="51" cy="550" r="5" fill="white"/>
<circle cx="151" cy="550" r="5" fill="white"/>
<circle cx="251" cy="550" r="5" fill="white"/>
<circle cx="351" cy="550" r="5" fill="white"/>
<circle cx="451" cy="550" r="5" fill="white"/>
<circle cx="551" cy="550" r="5" fill="white"/>
<circle cx="651" cy="550" r="5" fill="white"/>
<circle cx="751" cy="550" r="10" fill="white"/>
<circle cx="851" cy="550" r="5" fill="white"/>
<circle cx="951" cy="550" r="5" fill="white"/>
<circle cx="1051" cy="550" r="5" fill="white"/>
<circle cx="1151" cy="550" r="5" fill="white"/>
<circle cx="1251" cy="550" r="5" fill="white"/>
<circle cx="1351" cy="550" r="5" fill="white"/>
<circle cx="1451" cy="550" r="5" fill="white"/>
<circle cx="1551" cy="550" r="5" fill="white"/>
<circle cx="1651" cy="550" r="5" fill="white"/>
<circle cx="1751" cy="550" r="10" fill="white"/>
<circle cx="1851" cy="550" r="5" fill="white"/>
<circle cx="1951" cy="550" r="5" fill="white"/>
<circle cx="51" cy="650" r="5" fill="white"/>
<circle cx="151" cy="650" r="10" fill="white"/>
<circle cx="251" cy="650" r="20" fill="white"/>
<circle cx="351" cy="650" r="10" fill="white"/>
<circle cx="451" cy="650" r="5" fill="white"/>
<circle cx="551" cy="650" r="5" fill="white"/>
<circle cx="651" cy="650" r="20" fill="white"/>
<circle cx="751" cy="650" r="40" fill="white"/>
<circle cx="851" cy="650" r="20" fill="white"/>
<circle cx="951" cy="650" r="5" fill="white"/>
<circle cx="1051" cy="650" r="5" fill="white"/>
<circle cx="1151" cy="650" r="10" fill="white"/>
<circle cx="1251" cy="650" r="20" fill="white"/>
<circle cx="1351" cy="650" r="10" fill="white"/>
<circle cx="1451" cy="650" r="5" fill="white"/>
<circle cx="1551" cy="650" r="5" fill="white"/>
<circle cx="1651" cy="650" r="20" fill="white"/>
<circle cx="1751" cy="650" r="40" fill="white"/>
<circle cx="1851" cy="650" r="20" fill="white"/>
<circle cx="1951" cy="650" r="5" fill="white"/>
<circle cx="51" cy="750" r="5" fill="white"/>
<circle cx="151" cy="750" r="20" fill="white"/>
<circle cx="251" cy="750" r="30" fill="white"/>
<circle cx="351" cy="750" r="20" fill="white"/>
<circle cx="451" cy="750" r="5" fill="white"/>
<circle cx="551" cy="750" r="10" fill="white"/>
<circle cx="651" cy="750" r="40" fill="white"/>
<g clip-path="url(#clip2_136_4268)">
<circle cx="751" cy="750" r="50" fill="white"/>
</g>
<circle cx="851" cy="750" r="40" fill="white"/>
<circle cx="951" cy="750" r="10" fill="white"/>
<circle cx="1051" cy="750" r="5" fill="white"/>
<circle cx="1151" cy="750" r="20" fill="white"/>
<circle cx="1251" cy="750" r="30" fill="white"/>
<circle cx="1351" cy="750" r="20" fill="white"/>
<circle cx="1451" cy="750" r="5" fill="white"/>
<circle cx="1551" cy="750" r="10" fill="white"/>
<circle cx="1651" cy="750" r="40" fill="white"/>
<g clip-path="url(#clip3_136_4268)">
<circle cx="1751" cy="750" r="50" fill="white"/>
</g>
<circle cx="1851" cy="750" r="40" fill="white"/>
<circle cx="1951" cy="750" r="10" fill="white"/>
<circle cx="51" cy="850" r="5" fill="white"/>
<circle cx="151" cy="850" r="10" fill="white"/>
<circle cx="251" cy="850" r="20" fill="white"/>
<circle cx="351" cy="850" r="10" fill="white"/>
<circle cx="451" cy="850" r="5" fill="white"/>
<circle cx="551" cy="850" r="5" fill="white"/>
<circle cx="651" cy="850" r="20" fill="white"/>
<circle cx="751" cy="850" r="40" fill="white"/>
<circle cx="851" cy="850" r="20" fill="white"/>
<circle cx="951" cy="850" r="5" fill="white"/>
<circle cx="1051" cy="850" r="5" fill="white"/>
<circle cx="1151" cy="850" r="10" fill="white"/>
<circle cx="1251" cy="850" r="20" fill="white"/>
<circle cx="1351" cy="850" r="10" fill="white"/>
<circle cx="1451" cy="850" r="5" fill="white"/>
<circle cx="1551" cy="850" r="5" fill="white"/>
<circle cx="1651" cy="850" r="20" fill="white"/>
<circle cx="1751" cy="850" r="40" fill="white"/>
<circle cx="1851" cy="850" r="20" fill="white"/>
<circle cx="1951" cy="850" r="5" fill="white"/>
<circle cx="51" cy="950" r="5" fill="white"/>
<circle cx="151" cy="950" r="5" fill="white"/>
<circle cx="251" cy="950" r="5" fill="white"/>
<circle cx="351" cy="950" r="5" fill="white"/>
<circle cx="451" cy="950" r="5" fill="white"/>
<circle cx="551" cy="950" r="5" fill="white"/>
<circle cx="651" cy="950" r="5" fill="white"/>
<circle cx="751" cy="950" r="10" fill="white"/>
<circle cx="851" cy="950" r="5" fill="white"/>
<circle cx="951" cy="950" r="5" fill="white"/>
<circle cx="1051" cy="950" r="5" fill="white"/>
<circle cx="1151" cy="950" r="5" fill="white"/>
<circle cx="1251" cy="950" r="5" fill="white"/>
<circle cx="1351" cy="950" r="5" fill="white"/>
<circle cx="1451" cy="950" r="5" fill="white"/>
<circle cx="1551" cy="950" r="5" fill="white"/>
<circle cx="1651" cy="950" r="5" fill="white"/>
<circle cx="1751" cy="950" r="10" fill="white"/>
<circle cx="1851" cy="950" r="5" fill="white"/>
<circle cx="1951" cy="950" r="5" fill="white"/>
<defs>
<clipPath id="clip0_136_4268">
<rect width="100" height="100" fill="white" transform="translate(201 200)"/>
</clipPath>
<clipPath id="clip1_136_4268">
<rect width="100" height="100" fill="white" transform="translate(1201 200)"/>
</clipPath>
<clipPath id="clip2_136_4268">
<rect width="100" height="100" fill="white" transform="translate(701 700)"/>
</clipPath>
<clipPath id="clip3_136_4268">
<rect width="100" height="100" fill="white" transform="translate(1701 700)"/>
</clipPath>
</defs>
</svg>
