<svg width="2400" height="1200" viewBox="0 0 2400 1200" fill="none" xmlns="http://www.w3.org/2000/svg">
<circle cx="50" cy="50" r="5" fill="white"/>
<circle cx="150" cy="50" r="5" fill="white"/>
<circle cx="250" cy="50" r="5" fill="white"/>
<circle cx="350" cy="50" r="5" fill="white"/>
<circle cx="450" cy="50" r="5" fill="white"/>
<circle cx="550" cy="50" r="5" fill="white"/>
<circle cx="650" cy="50" r="5" fill="white"/>
<circle cx="750" cy="50" r="5" fill="white"/>
<circle cx="850" cy="50" r="5" fill="white"/>
<circle cx="950" cy="50" r="5" fill="white"/>
<circle cx="1050" cy="50" r="5" fill="white"/>
<circle cx="1150" cy="50" r="5" fill="white"/>
<circle cx="1250" cy="50" r="5" fill="white"/>
<circle cx="1350" cy="50" r="5" fill="white"/>
<circle cx="1450" cy="50" r="5" fill="white"/>
<circle cx="1550" cy="50" r="5" fill="white"/>
<circle cx="1650" cy="50" r="5" fill="white"/>
<circle cx="1750" cy="50" r="5" fill="white"/>
<circle cx="1850" cy="50" r="5" fill="white"/>
<circle cx="1950" cy="50" r="5" fill="white"/>
<circle cx="2050" cy="50" r="5" fill="white"/>
<circle cx="2150" cy="50" r="5" fill="white"/>
<circle cx="2250" cy="50" r="5" fill="white"/>
<circle cx="2350" cy="50" r="5" fill="white"/>
<circle cx="50" cy="150" r="5" fill="white"/>
<circle cx="150" cy="150" r="5" fill="white"/>
<circle cx="250" cy="150" r="5" fill="white"/>
<circle cx="350" cy="150" r="5" fill="white"/>
<circle cx="450" cy="150" r="5" fill="white"/>
<circle cx="550" cy="150" r="5" fill="white"/>
<circle cx="650" cy="150" r="5" fill="white"/>
<circle cx="750" cy="150" r="5" fill="white"/>
<circle cx="850" cy="150" r="5" fill="white"/>
<circle cx="950" cy="150" r="5" fill="white"/>
<circle cx="1050" cy="150" r="5" fill="white"/>
<circle cx="1150" cy="150" r="5" fill="white"/>
<circle cx="1250" cy="150" r="5" fill="white"/>
<circle cx="1350" cy="150" r="5" fill="white"/>
<circle cx="1450" cy="150" r="5" fill="white"/>
<circle cx="1550" cy="150" r="5" fill="white"/>
<circle cx="1650" cy="150" r="5" fill="white"/>
<circle cx="1750" cy="150" r="5" fill="white"/>
<circle cx="1850" cy="150" r="5" fill="white"/>
<circle cx="1950" cy="150" r="5" fill="white"/>
<circle cx="2050" cy="150" r="5" fill="white"/>
<circle cx="2150" cy="150" r="5" fill="white"/>
<circle cx="2250" cy="150" r="5" fill="white"/>
<circle cx="2350" cy="150" r="5" fill="white"/>
<circle cx="50" cy="250" r="10" fill="white"/>
<circle cx="150" cy="250" r="10" fill="white"/>
<circle cx="250" cy="250" r="10" fill="white"/>
<circle cx="350" cy="250" r="10" fill="white"/>
<circle cx="450" cy="250" r="10" fill="white"/>
<circle cx="550" cy="250" r="10" fill="white"/>
<circle cx="650" cy="250" r="10" fill="white"/>
<circle cx="750" cy="250" r="10" fill="white"/>
<circle cx="850" cy="250" r="10" fill="white"/>
<circle cx="950" cy="250" r="10" fill="white"/>
<circle cx="1050" cy="250" r="10" fill="white"/>
<circle cx="1150" cy="250" r="10" fill="white"/>
<circle cx="1250" cy="250" r="10" fill="white"/>
<circle cx="1350" cy="250" r="10" fill="white"/>
<circle cx="1450" cy="250" r="10" fill="white"/>
<circle cx="1550" cy="250" r="10" fill="white"/>
<circle cx="1650" cy="250" r="10" fill="white"/>
<circle cx="1750" cy="250" r="10" fill="white"/>
<circle cx="1850" cy="250" r="10" fill="white"/>
<circle cx="1950" cy="250" r="10" fill="white"/>
<circle cx="2050" cy="250" r="10" fill="white"/>
<circle cx="2150" cy="250" r="10" fill="white"/>
<circle cx="2250" cy="250" r="10" fill="white"/>
<circle cx="2350" cy="250" r="10" fill="white"/>
<circle cx="50" cy="350" r="10" fill="white"/>
<circle cx="150" cy="350" r="10" fill="white"/>
<circle cx="250" cy="350" r="10" fill="white"/>
<circle cx="350" cy="350" r="10" fill="white"/>
<circle cx="450" cy="350" r="10" fill="white"/>
<circle cx="550" cy="350" r="10" fill="white"/>
<circle cx="650" cy="350" r="10" fill="white"/>
<circle cx="750" cy="350" r="10" fill="white"/>
<circle cx="850" cy="350" r="10" fill="white"/>
<circle cx="950" cy="350" r="10" fill="white"/>
<circle cx="1050" cy="350" r="10" fill="white"/>
<circle cx="1150" cy="350" r="10" fill="white"/>
<circle cx="1250" cy="350" r="10" fill="white"/>
<circle cx="1350" cy="350" r="10" fill="white"/>
<circle cx="1450" cy="350" r="10" fill="white"/>
<circle cx="1550" cy="350" r="10" fill="white"/>
<circle cx="1650" cy="350" r="10" fill="white"/>
<circle cx="1750" cy="350" r="10" fill="white"/>
<circle cx="1850" cy="350" r="10" fill="white"/>
<circle cx="1950" cy="350" r="10" fill="white"/>
<circle cx="2050" cy="350" r="10" fill="white"/>
<circle cx="2150" cy="350" r="10" fill="white"/>
<circle cx="2250" cy="350" r="10" fill="white"/>
<circle cx="2350" cy="350" r="10" fill="white"/>
<circle cx="50" cy="450" r="10" fill="white"/>
<circle cx="150" cy="450" r="10" fill="white"/>
<circle cx="250" cy="450" r="10" fill="white"/>
<circle cx="350" cy="450" r="10" fill="white"/>
<circle cx="450" cy="450" r="10" fill="white"/>
<circle cx="550" cy="450" r="10" fill="white"/>
<circle cx="650" cy="450" r="10" fill="white"/>
<circle cx="750" cy="450" r="10" fill="white"/>
<circle cx="850" cy="450" r="10" fill="white"/>
<circle cx="950" cy="450" r="10" fill="white"/>
<circle cx="1050" cy="450" r="10" fill="white"/>
<circle cx="1150" cy="450" r="10" fill="white"/>
<circle cx="1250" cy="450" r="10" fill="white"/>
<circle cx="1350" cy="450" r="10" fill="white"/>
<circle cx="1450" cy="450" r="10" fill="white"/>
<circle cx="1550" cy="450" r="10" fill="white"/>
<circle cx="1650" cy="450" r="10" fill="white"/>
<circle cx="1750" cy="450" r="10" fill="white"/>
<circle cx="1850" cy="450" r="10" fill="white"/>
<circle cx="1950" cy="450" r="10" fill="white"/>
<circle cx="2050" cy="450" r="10" fill="white"/>
<circle cx="2150" cy="450" r="10" fill="white"/>
<circle cx="2250" cy="450" r="10" fill="white"/>
<circle cx="2350" cy="450" r="10" fill="white"/>
<circle cx="50" cy="550" r="20" fill="white"/>
<circle cx="150" cy="550" r="20" fill="white"/>
<circle cx="250" cy="550" r="20" fill="white"/>
<circle cx="350" cy="550" r="20" fill="white"/>
<circle cx="450" cy="550" r="20" fill="white"/>
<circle cx="550" cy="550" r="20" fill="white"/>
<circle cx="650" cy="550" r="20" fill="white"/>
<circle cx="750" cy="550" r="20" fill="white"/>
<circle cx="850" cy="550" r="20" fill="white"/>
<circle cx="950" cy="550" r="20" fill="white"/>
<circle cx="1050" cy="550" r="20" fill="white"/>
<circle cx="1150" cy="550" r="20" fill="white"/>
<circle cx="1250" cy="550" r="20" fill="white"/>
<circle cx="1350" cy="550" r="20" fill="white"/>
<circle cx="1450" cy="550" r="20" fill="white"/>
<circle cx="1550" cy="550" r="20" fill="white"/>
<circle cx="1650" cy="550" r="20" fill="white"/>
<circle cx="1750" cy="550" r="20" fill="white"/>
<circle cx="1850" cy="550" r="20" fill="white"/>
<circle cx="1950" cy="550" r="20" fill="white"/>
<circle cx="2050" cy="550" r="20" fill="white"/>
<circle cx="2150" cy="550" r="20" fill="white"/>
<circle cx="2250" cy="550" r="20" fill="white"/>
<circle cx="2350" cy="550" r="20" fill="white"/>
<circle cx="50" cy="650" r="20" fill="white"/>
<circle cx="150" cy="650" r="20" fill="white"/>
<circle cx="250" cy="650" r="20" fill="white"/>
<circle cx="350" cy="650" r="20" fill="white"/>
<circle cx="450" cy="650" r="20" fill="white"/>
<circle cx="550" cy="650" r="20" fill="white"/>
<circle cx="650" cy="650" r="20" fill="white"/>
<circle cx="750" cy="650" r="20" fill="white"/>
<circle cx="850" cy="650" r="20" fill="white"/>
<circle cx="950" cy="650" r="20" fill="white"/>
<circle cx="1050" cy="650" r="20" fill="white"/>
<circle cx="1150" cy="650" r="20" fill="white"/>
<circle cx="1250" cy="650" r="20" fill="white"/>
<circle cx="1350" cy="650" r="20" fill="white"/>
<circle cx="1450" cy="650" r="20" fill="white"/>
<circle cx="1550" cy="650" r="20" fill="white"/>
<circle cx="1650" cy="650" r="20" fill="white"/>
<circle cx="1750" cy="650" r="20" fill="white"/>
<circle cx="1850" cy="650" r="20" fill="white"/>
<circle cx="1950" cy="650" r="20" fill="white"/>
<circle cx="2050" cy="650" r="20" fill="white"/>
<circle cx="2150" cy="650" r="20" fill="white"/>
<circle cx="2250" cy="650" r="20" fill="white"/>
<circle cx="2350" cy="650" r="20" fill="white"/>
<circle cx="50" cy="750" r="20" fill="white"/>
<circle cx="150" cy="750" r="20" fill="white"/>
<circle cx="250" cy="750" r="20" fill="white"/>
<circle cx="350" cy="750" r="20" fill="white"/>
<circle cx="450" cy="750" r="20" fill="white"/>
<circle cx="550" cy="750" r="20" fill="white"/>
<circle cx="650" cy="750" r="20" fill="white"/>
<circle cx="750" cy="750" r="20" fill="white"/>
<circle cx="850" cy="750" r="20" fill="white"/>
<circle cx="950" cy="750" r="20" fill="white"/>
<circle cx="1050" cy="750" r="20" fill="white"/>
<circle cx="1150" cy="750" r="20" fill="white"/>
<circle cx="1250" cy="750" r="20" fill="white"/>
<circle cx="1350" cy="750" r="20" fill="white"/>
<circle cx="1450" cy="750" r="20" fill="white"/>
<circle cx="1550" cy="750" r="20" fill="white"/>
<circle cx="1650" cy="750" r="20" fill="white"/>
<circle cx="1750" cy="750" r="20" fill="white"/>
<circle cx="1850" cy="750" r="20" fill="white"/>
<circle cx="1950" cy="750" r="20" fill="white"/>
<circle cx="2050" cy="750" r="20" fill="white"/>
<circle cx="2150" cy="750" r="20" fill="white"/>
<circle cx="2250" cy="750" r="20" fill="white"/>
<circle cx="2350" cy="750" r="20" fill="white"/>
<circle cx="50" cy="850" r="20" fill="white"/>
<circle cx="150" cy="850" r="20" fill="white"/>
<circle cx="250" cy="850" r="20" fill="white"/>
<circle cx="350" cy="850" r="20" fill="white"/>
<circle cx="450" cy="850" r="20" fill="white"/>
<circle cx="550" cy="850" r="20" fill="white"/>
<circle cx="650" cy="850" r="20" fill="white"/>
<circle cx="750" cy="850" r="20" fill="white"/>
<circle cx="850" cy="850" r="20" fill="white"/>
<circle cx="950" cy="850" r="20" fill="white"/>
<circle cx="1050" cy="850" r="20" fill="white"/>
<circle cx="1150" cy="850" r="20" fill="white"/>
<circle cx="1250" cy="850" r="20" fill="white"/>
<circle cx="1350" cy="850" r="20" fill="white"/>
<circle cx="1450" cy="850" r="20" fill="white"/>
<circle cx="1550" cy="850" r="20" fill="white"/>
<circle cx="1650" cy="850" r="20" fill="white"/>
<circle cx="1750" cy="850" r="20" fill="white"/>
<circle cx="1850" cy="850" r="20" fill="white"/>
<circle cx="1950" cy="850" r="20" fill="white"/>
<circle cx="2050" cy="850" r="20" fill="white"/>
<circle cx="2150" cy="850" r="20" fill="white"/>
<circle cx="2250" cy="850" r="20" fill="white"/>
<circle cx="2350" cy="850" r="20" fill="white"/>
<circle cx="50" cy="950" r="30" fill="white"/>
<circle cx="150" cy="950" r="30" fill="white"/>
<circle cx="250" cy="950" r="30" fill="white"/>
<circle cx="350" cy="950" r="30" fill="white"/>
<circle cx="450" cy="950" r="30" fill="white"/>
<circle cx="550" cy="950" r="30" fill="white"/>
<circle cx="650" cy="950" r="30" fill="white"/>
<circle cx="750" cy="950" r="30" fill="white"/>
<circle cx="850" cy="950" r="30" fill="white"/>
<circle cx="950" cy="950" r="30" fill="white"/>
<circle cx="1050" cy="950" r="30" fill="white"/>
<circle cx="1150" cy="950" r="30" fill="white"/>
<circle cx="1250" cy="950" r="30" fill="white"/>
<circle cx="1350" cy="950" r="30" fill="white"/>
<circle cx="1450" cy="950" r="30" fill="white"/>
<circle cx="1550" cy="950" r="30" fill="white"/>
<circle cx="1650" cy="950" r="30" fill="white"/>
<circle cx="1750" cy="950" r="30" fill="white"/>
<circle cx="1850" cy="950" r="30" fill="white"/>
<circle cx="1950" cy="950" r="30" fill="white"/>
<circle cx="2050" cy="950" r="30" fill="white"/>
<circle cx="2150" cy="950" r="30" fill="white"/>
<circle cx="2250" cy="950" r="30" fill="white"/>
<circle cx="2350" cy="950" r="30" fill="white"/>
<circle cx="50" cy="1050" r="30" fill="white"/>
<circle cx="150" cy="1050" r="30" fill="white"/>
<circle cx="250" cy="1050" r="30" fill="white"/>
<circle cx="350" cy="1050" r="30" fill="white"/>
<circle cx="450" cy="1050" r="30" fill="white"/>
<circle cx="550" cy="1050" r="30" fill="white"/>
<circle cx="650" cy="1050" r="30" fill="white"/>
<circle cx="750" cy="1050" r="30" fill="white"/>
<circle cx="850" cy="1050" r="30" fill="white"/>
<circle cx="950" cy="1050" r="30" fill="white"/>
<circle cx="1050" cy="1050" r="30" fill="white"/>
<circle cx="1150" cy="1050" r="30" fill="white"/>
<circle cx="1250" cy="1050" r="30" fill="white"/>
<circle cx="1350" cy="1050" r="30" fill="white"/>
<circle cx="1450" cy="1050" r="30" fill="white"/>
<circle cx="1550" cy="1050" r="30" fill="white"/>
<circle cx="1650" cy="1050" r="30" fill="white"/>
<circle cx="1750" cy="1050" r="30" fill="white"/>
<circle cx="1850" cy="1050" r="30" fill="white"/>
<circle cx="1950" cy="1050" r="30" fill="white"/>
<circle cx="2050" cy="1050" r="30" fill="white"/>
<circle cx="2150" cy="1050" r="30" fill="white"/>
<circle cx="2250" cy="1050" r="30" fill="white"/>
<circle cx="2350" cy="1050" r="30" fill="white"/>
<circle cx="50" cy="1150" r="30" fill="white"/>
<circle cx="150" cy="1150" r="30" fill="white"/>
<circle cx="250" cy="1150" r="30" fill="white"/>
<circle cx="350" cy="1150" r="30" fill="white"/>
<circle cx="450" cy="1150" r="30" fill="white"/>
<circle cx="550" cy="1150" r="30" fill="white"/>
<circle cx="650" cy="1150" r="30" fill="white"/>
<circle cx="750" cy="1150" r="30" fill="white"/>
<circle cx="850" cy="1150" r="30" fill="white"/>
<circle cx="950" cy="1150" r="30" fill="white"/>
<circle cx="1050" cy="1150" r="30" fill="white"/>
<circle cx="1150" cy="1150" r="30" fill="white"/>
<circle cx="1250" cy="1150" r="30" fill="white"/>
<circle cx="1350" cy="1150" r="30" fill="white"/>
<circle cx="1450" cy="1150" r="30" fill="white"/>
<circle cx="1550" cy="1150" r="30" fill="white"/>
<circle cx="1650" cy="1150" r="30" fill="white"/>
<circle cx="1750" cy="1150" r="30" fill="white"/>
<circle cx="1850" cy="1150" r="30" fill="white"/>
<circle cx="1950" cy="1150" r="30" fill="white"/>
<circle cx="2050" cy="1150" r="30" fill="white"/>
<circle cx="2150" cy="1150" r="30" fill="white"/>
<circle cx="2250" cy="1150" r="30" fill="white"/>
<circle cx="2350" cy="1150" r="30" fill="white"/>
</svg>
